<svg class="main-svg" xmlns="http://www.w3.org/2000/svg" xmlns:xlink="http://www.w3.org/1999/xlink" width="3600" height="3600" style="" viewBox="0 0 1200 1200"><rect x="0" y="0" width="1200" height="1200" style="fill: rgb(255, 255, 255); fill-opacity: 1;"/><defs id="defs-fe32cb"><g class="clips"/><g class="gradients"><linearGradient x1="0" x2="0" y1="1" y2="0" id="gfe32cb-cbcoloraxis"><stop offset="0%" stop-color="rgb(103, 0, 31)" stop-opacity="1"/><stop offset="10%" stop-color="rgb(178, 24, 43)" stop-opacity="1"/><stop offset="20%" stop-color="rgb(214, 96, 77)" stop-opacity="1"/><stop offset="30%" stop-color="rgb(244, 165, 130)" stop-opacity="1"/><stop offset="40%" stop-color="rgb(253, 219, 199)" stop-opacity="1"/><stop offset="50%" stop-color="rgb(247, 247, 247)" stop-opacity="1"/><stop offset="60%" stop-color="rgb(209, 229, 240)" stop-opacity="1"/><stop offset="70%" stop-color="rgb(146, 197, 222)" stop-opacity="1"/><stop offset="80%" stop-color="rgb(67, 147, 195)" stop-opacity="1"/><stop offset="90%" stop-color="rgb(33, 102, 172)" stop-opacity="1"/><stop offset="100%" stop-color="rgb(5, 48, 97)" stop-opacity="1"/></linearGradient></g><g class="patterns"/></defs><g class="bglayer"/><g class="layer-below"><g class="imagelayer"/><g class="shapelayer"/></g><g class="cartesianlayer"/><g class="polarlayer"/><g class="smithlayer"/><g class="ternarylayer"/><g class="geolayer"/><g class="funnelarealayer"/><g class="pielayer"/><g class="iciclelayer"/><g class="treemaplayer"/><g class="sunburstlayer"><g class="trace sunburst" stroke-linejoin="round" style="opacity: 1;"><g class="slice cursor-pointer"><path class="surface" d="M540.5,610L770.75,610A230.25,230.25 0,0,0 378.29366280284097,446.5859043011236L540.5,610A0,0 0,0,1 540.5,610Z" style="pointer-events: all; stroke-width: 1; fill: rgb(206, 228, 239); fill-opacity: 1; stroke: rgb(255, 255, 255); stroke-opacity: 1;"/><g class="slicetext"><text data-notex="1" class="slicetext" text-anchor="middle" x="0" y="0" style="font-family: 'Open Sans', verdana, arial, sans-serif; font-size: 24px; fill: rgb(68, 68, 68); fill-opacity: 1; white-space: pre;" transform="translate(582.2699039157657,509.6851316543353)rotate(22.60625737898465)">machine human interface</text></g></g><g class="slice cursor-pointer"><path class="surface" d="M540.5,610L378.29366280284097,446.5859043011236A230.25,230.25 0,0,0 332.22542839043723,708.1670276663866L540.5,610A0,0 0,0,1 540.5,610Z" style="pointer-events: all; stroke-width: 1; fill: rgb(162, 205, 227); fill-opacity: 1; stroke: rgb(255, 255, 255); stroke-opacity: 1;"/><g class="slicetext"><text data-notex="1" class="slicetext" text-anchor="middle" x="0" y="0" style="font-family: 'Open Sans', verdana, arial, sans-serif; font-size: 24px; fill: rgb(68, 68, 68); fill-opacity: 1; white-space: pre;" transform="translate(361.5648171697884,578.4869158706916)scale(0.7010727734017239)rotate(-80.01180637544269)">natural language technology</text></g></g><g class="slice cursor-pointer"><path class="surface" d="M540.5,610L332.22542839043723,708.1670276663866A230.25,230.25 0,0,0 428.4702908540145,811.1576664426834L540.5,610A0,0 0,0,1 540.5,610Z" style="pointer-events: all; stroke-width: 1; fill: rgb(165, 207, 228); fill-opacity: 1; stroke: rgb(255, 255, 255); stroke-opacity: 1;"/><g class="slicetext"><text data-notex="1" class="slicetext" text-anchor="middle" x="0" y="0" style="font-family: 'Open Sans', verdana, arial, sans-serif; font-size: 24px; fill: rgb(68, 68, 68); fill-opacity: 1; white-space: pre;" transform="translate(447.89325027018185,705.1999424530512)scale(0.7908001272219742)rotate(-43.06080283353003)">research computing</text></g></g><g class="slice cursor-pointer"><path class="surface" d="M540.5,610L428.4702908540145,811.1576664426834A230.25,230.25 0,0,0 535.3763258431562,840.1929852604864L540.5,610A0,0 0,0,1 540.5,610Z" style="pointer-events: all; stroke-width: 1; fill: rgb(177, 213, 231); fill-opacity: 1; stroke: rgb(255, 255, 255); stroke-opacity: 1;"/><g class="slicetext"><text data-notex="1" class="slicetext" text-anchor="middle" x="0" y="0" style="font-family: 'Open Sans', verdana, arial, sans-serif; font-size: 24px; fill: rgb(68, 68, 68); fill-opacity: 1; white-space: pre;" transform="translate(506.46121737312285,765.8509478287278)rotate(-74.80519480519479)">finance</text></g></g><g class="slice cursor-pointer"><path class="surface" d="M540.5,610L535.3763258431562,840.1929852604864A230.25,230.25 0,0,0 639.6316035130998,817.8171977602469L540.5,610A0,0 0,0,1 540.5,610Z" style="pointer-events: all; stroke-width: 1; fill: rgb(209, 229, 240); fill-opacity: 1; stroke: rgb(255, 255, 255); stroke-opacity: 1;"/><g class="slicetext"><text data-notex="1" class="slicetext" text-anchor="middle" x="0" y="0" style="font-family: 'Open Sans', verdana, arial, sans-serif; font-size: 24px; fill: rgb(68, 68, 68); fill-opacity: 1; white-space: pre;" transform="translate(563.155299311682,752.9772132420773)scale(0.9815454954079719)rotate(77.88665879574967)">search engine</text></g></g><g class="slice cursor-pointer"><path class="surface" d="M540.5,610L639.6316035130998,817.8171977602469A230.25,230.25 0,0,0 719.3123856749945,755.0558279739804L540.5,610A0,0 0,0,1 540.5,610Z" style="pointer-events: all; stroke-width: 1; fill: rgb(231, 239, 244); fill-opacity: 1; stroke: rgb(255, 255, 255); stroke-opacity: 1;"/><g class="slicetext"><text data-notex="1" class="slicetext" text-anchor="middle" x="0" y="0" style="font-family: 'Open Sans', verdana, arial, sans-serif; font-size: 24px; fill: rgb(68, 68, 68); fill-opacity: 1; white-space: pre;" transform="translate(634.0054076571321,741.6418511885026)rotate(51.77390791027153)">gaming</text></g></g><g class="slice cursor-pointer"><path class="surface" d="M540.5,610L719.3123856749945,755.0558279739804A230.25,230.25 0,0,0 753.1823872683294,698.2114768374523L540.5,610A0,0 0,0,1 540.5,610Z" style="pointer-events: all; stroke-width: 1; fill: rgb(173, 211, 230); fill-opacity: 1; stroke: rgb(255, 255, 255); stroke-opacity: 1;"/><g class="slicetext"><text data-notex="1" class="slicetext" text-anchor="middle" x="0" y="0" style="font-family: 'Open Sans', verdana, arial, sans-serif; font-size: 24px; fill: rgb(68, 68, 68); fill-opacity: 1; white-space: pre;" transform="translate(668.9937046672611,693.760717023427)scale(0.773088582253097)rotate(30.788075560802838)">computer vision</text></g></g><g class="slice cursor-pointer"><path class="surface" d="M540.5,610L753.1823872683294,698.2114768374523A230.25,230.25 0,0,0 766.7623491528345,652.6662847672588L540.5,610A0,0 0,0,1 540.5,610Z" style="pointer-events: all; stroke-width: 1; fill: rgb(166, 207, 228); fill-opacity: 1; stroke: rgb(255, 255, 255); stroke-opacity: 1;"/><g class="slicetext"><text data-notex="1" class="slicetext" text-anchor="middle" x="0" y="0" style="font-family: 'Open Sans', verdana, arial, sans-serif; font-size: 24px; fill: rgb(68, 68, 68); fill-opacity: 1; white-space: pre;" transform="translate(700.9347791662813,664.3797323705314)scale(0.7838689960711667)rotate(16.60271546635181)">social media</text></g></g><g class="slice cursor-pointer"><path class="surface" d="M540.5,610L766.7623491528345,652.6662847672588A230.25,230.25 0,0,0 770.75,610L540.5,610A0,0 0,0,1 540.5,610Z" style="pointer-events: all; stroke-width: 1; fill: rgb(43, 115, 179); fill-opacity: 1; stroke: rgb(255, 255, 255); stroke-opacity: 1;"/><g class="slicetext"><text data-notex="1" class="slicetext" text-anchor="middle" x="0" y="0" style="font-family: 'Open Sans', verdana, arial, sans-serif; font-size: 24px; fill: rgb(255, 255, 255); fill-opacity: 1; white-space: pre;" transform="translate(705.3249586852437,630.7347579218053)scale(0.6633573234044536)rotate(5.339433293978743)">transhumanism</text></g></g><g class="slice"><path class="surface" d="M770.75,610L1001,610A460.5,460.5 0,0,0 871.2149892318649,289.55055640964605L705.8574946159324,449.77527820482305A230.25,230.25 0,0,1 770.75,610Z" style="pointer-events: all; stroke-width: 1; fill: rgb(175, 212, 230); fill-opacity: 1; stroke: rgb(255, 255, 255); stroke-opacity: 1; opacity: 1;"/><g class="slicetext"><text data-notex="1" class="slicetext" text-anchor="middle" x="0" y="0" style="font-family: 'Open Sans', verdana, arial, sans-serif; font-size: 24px; fill: rgb(68, 68, 68); fill-opacity: 1; white-space: pre;" transform="translate(860.6167034688026,488.3497520817382)"> intelligence</text></g></g><g class="slice"><path class="surface" d="M705.8574946159324,449.77527820482305L871.2149892318649,289.55055640964605A460.5,460.5 0,0,0 612.791110537183,155.2096688172661L576.6455552685915,382.60483440863305A230.25,230.25 0,0,1 705.8574946159324,449.77527820482305Z" style="pointer-events: all; stroke-width: 1; fill: rgb(243, 245, 246); fill-opacity: 1; stroke: rgb(255, 255, 255); stroke-opacity: 1; opacity: 1;"/><g class="slicetext"><text data-notex="1" class="slicetext" text-anchor="middle" x="0" y="0" style="font-family: 'Open Sans', verdana, arial, sans-serif; font-size: 24px; fill: rgb(68, 68, 68); fill-opacity: 1; white-space: pre;" transform="translate(701.8716525986293,307.5785853191431)">autopilot</text></g></g><g class="slice"><path class="surface" d="M576.6455552685915,382.60483440863305L612.791110537183,155.2096688172661A460.5,460.5 0,0,0 439.2784111103243,160.76237919932674L489.88920555516216,385.38118959966334A230.25,230.25 0,0,1 576.6455552685915,382.60483440863305Z" style="pointer-events: all; stroke-width: 1; fill: rgb(194, 222, 236); fill-opacity: 1; stroke: rgb(255, 255, 255); stroke-opacity: 1; opacity: 1;"/><g class="slicetext"><text data-notex="1" class="slicetext" text-anchor="middle" x="0" y="0" style="font-family: 'Open Sans', verdana, arial, sans-serif; font-size: 24px; fill: rgb(68, 68, 68); fill-opacity: 1; white-space: pre;" transform="translate(528.1067645008873,230.73259397227946)"> data</text></g></g><g class="slice"><path class="surface" d="M489.88920555516216,385.38118959966334L439.2784111103243,160.76237919932674A460.5,460.5 0,0,0 310.86660781399314,210.83993787811443L425.68330390699657,410.4199689390572A230.25,230.25 0,0,1 489.88920555516216,385.38118959966334Z" style="pointer-events: all; stroke-width: 1; fill: rgb(171, 210, 229); fill-opacity: 1; stroke: rgb(255, 255, 255); stroke-opacity: 1; opacity: 1;"/><g class="slicetext"><text data-notex="1" class="slicetext" text-anchor="middle" x="0" y="0" style="font-family: 'Open Sans', verdana, arial, sans-serif; font-size: 24px; fill: rgb(68, 68, 68); fill-opacity: 1; white-space: pre;" transform="translate(407.59367090449246,291.21260854952357)rotate(68.6953955135773)"> supercomputer</text></g></g><g class="slice"><path class="surface" d="M425.68330390699657,410.4199689390572L310.86660781399314,210.83993787811443A460.5,460.5 0,0,0 216.08732560568194,283.17180860224715L378.29366280284097,446.5859043011236A230.25,230.25 0,0,1 425.68330390699657,410.4199689390572Z" style="pointer-events: all; stroke-width: 1; fill: rgb(209, 229, 240); fill-opacity: 1; stroke: rgb(255, 255, 255); stroke-opacity: 1; opacity: 1;"/><g class="slicetext"><text data-notex="1" class="slicetext" text-anchor="middle" x="0" y="0" style="font-family: 'Open Sans', verdana, arial, sans-serif; font-size: 24px; fill: rgb(68, 68, 68); fill-opacity: 1; white-space: pre;" transform="translate(324.79014932952293,340.5335695054465)rotate(52.650531286894875)"> computer</text></g></g><g class="slice"><path class="surface" d="M378.29366280284097,446.5859043011236L216.08732560568194,283.17180860224715A460.5,460.5 0,0,0 88.05462260973519,524.2478543814743L314.27731130486757,567.1239271907372A230.25,230.25 0,0,1 378.29366280284097,446.5859043011236Z" style="pointer-events: all; stroke-width: 1; fill: rgb(109, 174, 209); fill-opacity: 1; stroke: rgb(255, 255, 255); stroke-opacity: 1; opacity: 1;"/><g class="slicetext"><text data-notex="1" class="slicetext" text-anchor="middle" x="0" y="0" style="font-family: 'Open Sans', verdana, arial, sans-serif; font-size: 24px; fill: rgb(68, 68, 68); fill-opacity: 1; white-space: pre;" transform="translate(226.7785192670285,451.3861457022696)"> recognition</text></g></g><g class="slice"><path class="surface" d="M314.27731130486757,567.1239271907372L88.05462260973519,524.2478543814743A460.5,460.5 0,0,0 80.16648779677325,622.3817423104226L310.3332438983866,616.1908711552113A230.25,230.25 0,0,1 314.27731130486757,567.1239271907372Z" style="pointer-events: all; stroke-width: 1; fill: rgb(247, 246, 245); fill-opacity: 1; stroke: rgb(255, 255, 255); stroke-opacity: 1; opacity: 1;"/><g class="slicetext"><text data-notex="1" class="slicetext" text-anchor="middle" x="0" y="0" style="font-family: 'Open Sans', verdana, arial, sans-serif; font-size: 24px; fill: rgb(68, 68, 68); fill-opacity: 1; white-space: pre;" transform="translate(125.80896107443135,584.6665726813911)"> data</text></g></g><g class="slice"><path class="surface" d="M310.3332438983866,616.1908711552113L80.16648779677325,622.3817423104226A460.5,460.5 0,0,0 86.75912926634777,688.6096191688213L313.6295646331739,649.3048095844106A230.25,230.25 0,0,1 310.3332438983866,616.1908711552113Z" style="pointer-events: all; stroke-width: 1; fill: rgb(126, 184, 215); fill-opacity: 1; stroke: rgb(255, 255, 255); stroke-opacity: 1; opacity: 1;"/><g class="slicetext"><text data-notex="1" class="slicetext" text-anchor="middle" x="0" y="0" style="font-family: 'Open Sans', verdana, arial, sans-serif; font-size: 24px; fill: rgb(68, 68, 68); fill-opacity: 1; white-space: pre;" transform="translate(170.92244765814172,654.8290664820199)rotate(-5.6847697756788875)"> language</text></g></g><g class="slice"><path class="surface" d="M313.6295646331739,649.3048095844106L86.75912926634777,688.6096191688213A460.5,460.5 0,0,0 102.17048310518993,751.1647428317794L321.335241552595,680.5823714158897A230.25,230.25 0,0,1 313.6295646331739,649.3048095844106Z" style="pointer-events: all; stroke-width: 1; fill: rgb(182, 215, 232); fill-opacity: 1; stroke: rgb(255, 255, 255); stroke-opacity: 1; opacity: 1;"/><g class="slicetext"><text data-notex="1" class="slicetext" text-anchor="middle" x="0" y="0" style="font-family: 'Open Sans', verdana, arial, sans-serif; font-size: 24px; fill: rgb(68, 68, 68); fill-opacity: 1; white-space: pre;" transform="translate(173.52912421241544,708.6477552539391)rotate(-13.840023612750883)">autopilot</text></g></g><g class="slice"><path class="surface" d="M321.335241552595,680.5823714158897L102.17048310518993,751.1647428317794A460.5,460.5 0,0,0 123.95085678087457,806.3340553327733L332.2254283904373,708.1670276663867A230.25,230.25 0,0,1 321.335241552595,680.5823714158897Z" style="pointer-events: all; stroke-width: 1; fill: rgb(203, 226, 238); fill-opacity: 1; stroke: rgb(255, 255, 255); stroke-opacity: 1; opacity: 1;"/><g class="slicetext"><text data-notex="1" class="slicetext" text-anchor="middle" x="0" y="0" style="font-family: 'Open Sans', verdana, arial, sans-serif; font-size: 24px; fill: rgb(68, 68, 68); fill-opacity: 1; white-space: pre;" transform="translate(198.16089816626754,753.7534308477461)rotate(-21.54368358913814)"> translation</text></g></g><g class="slice"><path class="surface" d="M332.22542839043723,708.1670276663866L123.95085678087446,806.3340553327732A460.5,460.5 0,0,0 213.67180860224715,934.4126743943181L377.0859043011236,772.206337197159A230.25,230.25 0,0,1 332.22542839043723,708.1670276663866Z" style="pointer-events: all; stroke-width: 1; fill: rgb(199, 224, 237); fill-opacity: 1; stroke: rgb(255, 255, 255); stroke-opacity: 1; opacity: 1;"/><g class="slicetext"><text data-notex="1" class="slicetext" text-anchor="middle" x="0" y="0" style="font-family: 'Open Sans', verdana, arial, sans-serif; font-size: 24px; fill: rgb(68, 68, 68); fill-opacity: 1; white-space: pre;" transform="translate(218.07914127992944,843.8605420903899)"> data</text></g></g><g class="slice"><path class="surface" d="M377.0859043011236,772.206337197159L213.67180860224715,934.4126743943181A460.5,460.5 0,0,0 246.0985324846784,964.1017169187761L393.2992662423392,787.0508584593881A230.25,230.25 0,0,1 377.0859043011236,772.206337197159Z" style="pointer-events: all; stroke-width: 1; fill: rgb(95, 165, 205); fill-opacity: 1; stroke: rgb(255, 255, 255); stroke-opacity: 1; opacity: 1;"/><g class="slicetext"><text data-notex="1" class="slicetext" text-anchor="middle" x="0" y="0" style="font-family: 'Open Sans', verdana, arial, sans-serif; font-size: 24px; fill: rgb(68, 68, 68); fill-opacity: 1; white-space: pre;" transform="translate(296.4182294851442,887.7200986024956)scale(0.9395847474964295)rotate(-47.52361275088549)"> supercomputer</text></g></g><g class="slice"><path class="surface" d="M393.2992662423392,787.0508584593881L246.0985324846784,964.1017169187761A460.5,460.5 0,0,0 269.34148001034,982.2006274000853L404.92074000517,796.1003137000426A230.25,230.25 0,0,1 393.2992662423392,787.0508584593881Z" style="pointer-events: all; stroke-width: 1; fill: rgb(139, 193, 220); fill-opacity: 1; stroke: rgb(255, 255, 255); stroke-opacity: 1; opacity: 1;"/><g class="slicetext"><text data-notex="1" class="slicetext" text-anchor="middle" x="0" y="0" style="font-family: 'Open Sans', verdana, arial, sans-serif; font-size: 24px; fill: rgb(68, 68, 68); fill-opacity: 1; white-space: pre;" transform="translate(291.4730132004306,940.5958252094445)scale(0.8287202339600407)rotate(-52.092680047225485)"> machine</text></g></g><g class="slice"><path class="surface" d="M404.92074000517,796.1003137000426L269.34148001034,982.2006274000853A460.5,460.5 0,0,0 293.33368330130145,998.5473740608713L416.9168416506507,804.2736870304357A230.25,230.25 0,0,1 404.92074000517,796.1003137000426Z" style="pointer-events: all; stroke-width: 1; fill: rgb(137, 191, 219); fill-opacity: 1; stroke: rgb(255, 255, 255); stroke-opacity: 1; opacity: 1;"/><g class="slicetext"><text data-notex="1" class="slicetext" text-anchor="middle" x="0" y="0" style="font-family: 'Open Sans', verdana, arial, sans-serif; font-size: 24px; fill: rgb(68, 68, 68); fill-opacity: 1; white-space: pre;" transform="translate(318.58813663579286,946.6284349834955)scale(0.7690944682626493)rotate(-55.73199527744987)"> intelligence</text></g></g><g class="slice"><path class="surface" d="M416.9168416506507,804.2736870304357L293.33368330130145,998.5473740608713A460.5,460.5 0,0,0 316.4405817080286,1012.3153328853666L428.4702908540143,811.1576664426833A230.25,230.25 0,0,1 416.9168416506507,804.2736870304357Z" style="pointer-events: all; stroke-width: 1; fill: rgb(113, 176, 211); fill-opacity: 1; stroke: rgb(255, 255, 255); stroke-opacity: 1; opacity: 1;"/><g class="slicetext"><text data-notex="1" class="slicetext" text-anchor="middle" x="0" y="0" style="font-family: 'Open Sans', verdana, arial, sans-serif; font-size: 24px; fill: rgb(68, 68, 68); fill-opacity: 1; white-space: pre;" transform="translate(334.1517564053527,968.099444353019)scale(0.7539241080114539)rotate(-59.21192443919722)"> computer</text></g></g><g class="slice"><path class="surface" d="M428.4702908540145,811.1576664426834L316.440581708029,1012.3153328853668A460.5,460.5 0,0,0 482.1571118018544,1066.7891826616506L511.3285559009272,838.3945913308253A230.25,230.25 0,0,1 428.4702908540145,811.1576664426834Z" style="pointer-events: all; stroke-width: 1; fill: rgb(170, 209, 229); fill-opacity: 1; stroke: rgb(255, 255, 255); stroke-opacity: 1; opacity: 1;"/><g class="slicetext"><text data-notex="1" class="slicetext" text-anchor="middle" x="0" y="0" style="font-family: 'Open Sans', verdana, arial, sans-serif; font-size: 24px; fill: rgb(68, 68, 68); fill-opacity: 1; white-space: pre;" transform="translate(419.5955724976678,985.8069804310037)">autopilot</text></g></g><g class="slice"><path class="surface" d="M511.3285559009272,838.3945913308253L482.1571118018544,1066.7891826616506A460.5,460.5 0,0,0 501.68836003060073,1068.8615331479484L521.0941800153004,839.4307665739742A230.25,230.25 0,0,1 511.3285559009272,838.3945913308253Z" style="pointer-events: all; stroke-width: 1; fill: rgb(248, 242, 239); fill-opacity: 1; stroke: rgb(255, 255, 255); stroke-opacity: 1; opacity: 1;"/><g class="slicetext"><text data-notex="1" class="slicetext" text-anchor="middle" x="0" y="0" style="font-family: 'Open Sans', verdana, arial, sans-serif; font-size: 24px; fill: rgb(68, 68, 68); fill-opacity: 1; white-space: pre;" transform="translate(499.0423566840265,1048.7094631503637)scale(0.6328651668440182)rotate(-83.94332939787489)"> data</text></g></g><g class="slice"><path class="surface" d="M521.0941800153004,839.4307665739742L501.68836003060073,1068.8615331479484A460.5,460.5 0,0,0 515.3190883119188,1069.8110173609991L527.9095441559593,839.9055086804996A230.25,230.25 0,0,1 521.0941800153004,839.4307665739742Z" style="pointer-events: all; stroke-width: 1; fill: rgb(126, 185, 215); fill-opacity: 1; stroke: rgb(255, 255, 255); stroke-opacity: 1; opacity: 1;"/><g class="slicetext"><text data-notex="1" class="slicetext" text-anchor="middle" x="0" y="0" style="font-family: 'Open Sans', verdana, arial, sans-serif; font-size: 24px; fill: rgb(68, 68, 68); fill-opacity: 1; white-space: pre;" transform="translate(513.9838638324183,1038.6449147476026)scale(0.4167716293391813)rotate(-86.01534828807553)"> intelligence</text></g></g><g class="slice"><path class="surface" d="M527.9095441559593,839.9055086804996L515.3190883119188,1069.8110173609991A460.5,460.5 0,0,0 524.277050032951,1070.2141522099973L532.3885250164755,840.1070761049987A230.25,230.25 0,0,1 527.9095441559593,839.9055086804996Z" style="pointer-events: all; stroke-width: 1; fill: rgb(93, 164, 204); fill-opacity: 1; stroke: rgb(255, 255, 255); stroke-opacity: 1; opacity: 1;"/><g class="slicetext"><text data-notex="1" class="slicetext" text-anchor="middle" x="0" y="0" style="font-family: 'Open Sans', verdana, arial, sans-serif; font-size: 24px; fill: rgb(68, 68, 68); fill-opacity: 1; white-space: pre;" transform="translate(523.0305445343683,1049.3512011183368)scale(0.28754045044897664)rotate(-87.42325855962224)"> recognition</text></g></g><g class="slice"><path class="surface" d="M532.3885250164755,840.1070761049987L524.277050032951,1070.2141522099973A460.5,460.5 0,0,0 530.2526516863129,1070.3859705209727L535.3763258431565,840.1929852604864A230.25,230.25 0,0,1 532.3885250164755,840.1070761049987Z" style="pointer-events: all; stroke-width: 1; fill: rgb(225, 237, 243); fill-opacity: 1; stroke: rgb(255, 255, 255); stroke-opacity: 1; opacity: 1;"/><g class="slicetext"><text data-notex="1" class="slicetext" text-anchor="middle" x="0" y="0" style="font-family: 'Open Sans', verdana, arial, sans-serif; font-size: 24px; fill: rgb(68, 68, 68); fill-opacity: 1; white-space: pre;" transform="translate(529.087463937633,1063.9293105675456)scale(0.20484445492074332)rotate(-88.35301062573797)"> time</text></g></g><g class="slice"><path class="surface" d="M535.3763258431562,840.1929852604864L530.2526516863126,1070.3859705209727A460.5,460.5 0,0,0 643.3871480814071,1058.859092321493L591.9435740407035,834.4295461607466A230.25,230.25 0,0,1 535.3763258431562,840.1929852604864Z" style="pointer-events: all; stroke-width: 1; fill: rgb(228, 238, 243); fill-opacity: 1; stroke: rgb(255, 255, 255); stroke-opacity: 1; opacity: 1;"/><g class="slicetext"><text data-notex="1" class="slicetext" text-anchor="middle" x="0" y="0" style="font-family: 'Open Sans', verdana, arial, sans-serif; font-size: 24px; fill: rgb(68, 68, 68); fill-opacity: 1; white-space: pre;" transform="translate(582.0470736082174,1025.7779922726843)"> data</text></g></g><g class="slice"><path class="surface" d="M591.9435740407035,834.4295461607466L643.3871480814071,1058.859092321493A460.5,460.5 0,0,0 686.5333037462333,1046.731638648908L613.5166518731166,828.365819324454A230.25,230.25 0,0,1 591.9435740407035,834.4295461607466Z" style="pointer-events: all; stroke-width: 1; fill: rgb(212, 231, 241); fill-opacity: 1; stroke: rgb(255, 255, 255); stroke-opacity: 1; opacity: 1;"/><g class="slicetext"><text data-notex="1" class="slicetext" text-anchor="middle" x="0" y="0" style="font-family: 'Open Sans', verdana, arial, sans-serif; font-size: 24px; fill: rgb(68, 68, 68); fill-opacity: 1; white-space: pre;" transform="translate(640.4695336997171,995.2289464431112)rotate(74.30047225501767)">autopilot</text></g></g><g class="slice"><path class="surface" d="M613.5166518731166,828.365819324454L686.5333037462333,1046.731638648908A460.5,460.5 0,0,0 709.799001299368,1038.2500416334324L625.149500649684,824.1250208167162A230.25,230.25 0,0,1 613.5166518731166,828.365819324454Z" style="pointer-events: all; stroke-width: 1; fill: rgb(141, 194, 220); fill-opacity: 1; stroke: rgb(255, 255, 255); stroke-opacity: 1; opacity: 1;"/><g class="slicetext"><text data-notex="1" class="slicetext" text-anchor="middle" x="0" y="0" style="font-family: 'Open Sans', verdana, arial, sans-serif; font-size: 24px; fill: rgb(68, 68, 68); fill-opacity: 1; white-space: pre;" transform="translate(680.1748597100328,1010.3006801224144)scale(0.734731068030176)rotate(69.97048406139311)"> science</text></g></g><g class="slice"><path class="surface" d="M625.149500649684,824.1250208167162L709.799001299368,1038.2500416334324A460.5,460.5 0,0,0 727.1258242385678,1030.988184783463L633.812912119284,820.4940923917316A230.25,230.25 0,0,1 625.149500649684,824.1250208167162Z" style="pointer-events: all; stroke-width: 1; fill: rgb(89, 161, 202); fill-opacity: 1; stroke: rgb(255, 255, 255); stroke-opacity: 1; opacity: 1;"/><g class="slicetext"><text data-notex="1" class="slicetext" text-anchor="middle" x="0" y="0" style="font-family: 'Open Sans', verdana, arial, sans-serif; font-size: 24px; fill: rgb(68, 68, 68); fill-opacity: 1; white-space: pre;" transform="translate(698.760270479938,998.8998550098605)scale(0.5455046050365783)rotate(67.26092089728445)"> intelligence</text></g></g><g class="slice"><path class="surface" d="M633.812912119284,820.4940923917316L727.1258242385678,1030.988184783463A460.5,460.5 0,0,0 738.7632070261996,1025.6343955204939L639.6316035130998,817.8171977602469A230.25,230.25 0,0,1 633.812912119284,820.4940923917316Z" style="pointer-events: all; stroke-width: 1; fill: rgb(205, 227, 239); fill-opacity: 1; stroke: rgb(255, 255, 255); stroke-opacity: 1; opacity: 1;"/><g class="slicetext"><text data-notex="1" class="slicetext" text-anchor="middle" x="0" y="0" style="font-family: 'Open Sans', verdana, arial, sans-serif; font-size: 24px; fill: rgb(68, 68, 68); fill-opacity: 1; white-space: pre;" transform="translate(718.1245327330397,1003.6672477661707)scale(0.3954658770869063)rotate(65.29515938606846)"> recognition</text></g></g><g class="slice"><path class="surface" d="M639.6316035130998,817.8171977602469L738.7632070261996,1025.6343955204939A460.5,460.5 0,0,0 794.4730857577567,994.1326876362947L667.4865428788784,802.0663438181473A230.25,230.25 0,0,1 639.6316035130998,817.8171977602469Z" style="pointer-events: all; stroke-width: 1; fill: rgb(93, 164, 204); fill-opacity: 1; stroke: rgb(255, 255, 255); stroke-opacity: 1; opacity: 1;"/><g class="slicetext"><text data-notex="1" class="slicetext" text-anchor="middle" x="0" y="0" style="font-family: 'Open Sans', verdana, arial, sans-serif; font-size: 24px; fill: rgb(68, 68, 68); fill-opacity: 1; white-space: pre;" transform="translate(712.20547573706,929.9092579245417)rotate(60.513577331759166)"> intelligence</text></g></g><g class="slice"><path class="surface" d="M667.4865428788784,802.0663438181473L794.4730857577567,994.1326876362947A460.5,460.5 0,0,0 832.2666065350246,966.2758724795101L686.3833032675122,788.137936239755A230.25,230.25 0,0,1 667.4865428788784,802.0663438181473Z" style="pointer-events: all; stroke-width: 1; fill: rgb(250, 233, 223); fill-opacity: 1; stroke: rgb(255, 255, 255); stroke-opacity: 1; opacity: 1;"/><g class="slicetext"><text data-notex="1" class="slicetext" text-anchor="middle" x="0" y="0" style="font-family: 'Open Sans', verdana, arial, sans-serif; font-size: 24px; fill: rgb(68, 68, 68); fill-opacity: 1; white-space: pre;" transform="translate(781.9242154232036,951.0251780921725)rotate(53.606847697756734)"> time</text></g></g><g class="slice"><path class="surface" d="M686.3833032675122,788.137936239755L832.2666065350246,966.2758724795101A460.5,460.5 0,0,0 860.3355683317398,941.3087068428974L700.4177841658699,775.6543534214487A230.25,230.25 0,0,1 686.3833032675122,788.137936239755Z" style="pointer-events: all; stroke-width: 1; fill: rgb(237, 242, 245); fill-opacity: 1; stroke: rgb(255, 255, 255); stroke-opacity: 1; opacity: 1;"/><g class="slicetext"><text data-notex="1" class="slicetext" text-anchor="middle" x="0" y="0" style="font-family: 'Open Sans', verdana, arial, sans-serif; font-size: 24px; fill: rgb(68, 68, 68); fill-opacity: 1; white-space: pre;" transform="translate(816.118551890785,931.897047608988)rotate(48.34710743801651)"> level</text></g></g><g class="slice"><path class="surface" d="M700.4177841658699,775.6543534214487L860.3355683317398,941.3087068428974A460.5,460.5 0,0,0 880.2885390516649,920.8118381418817L710.3942695258324,765.4059190709409A230.25,230.25 0,0,1 700.4177841658699,775.6543534214487Z" style="pointer-events: all; stroke-width: 1; fill: rgb(249, 237, 230); fill-opacity: 1; stroke: rgb(255, 255, 255); stroke-opacity: 1; opacity: 1;"/><g class="slicetext"><text data-notex="1" class="slicetext" text-anchor="middle" x="0" y="0" style="font-family: 'Open Sans', verdana, arial, sans-serif; font-size: 24px; fill: rgb(68, 68, 68); fill-opacity: 1; white-space: pre;" transform="translate(830.4284934620755,901.0717763260568)scale(0.7914945492756874)rotate(44.229634002361195)"> computer</text></g></g><g class="slice"><path class="surface" d="M710.3942695258324,765.4059190709409L880.2885390516649,920.8118381418817A460.5,460.5 0,0,0 898.1247713499893,900.1116559479606L719.3123856749946,755.0558279739803A230.25,230.25 0,0,1 710.3942695258324,765.4059190709409Z" style="pointer-events: all; stroke-width: 1; fill: rgb(237, 148, 117); fill-opacity: 1; stroke: rgb(255, 255, 255); stroke-opacity: 1; opacity: 1;"/><g class="slicetext"><text data-notex="1" class="slicetext" text-anchor="middle" x="0" y="0" style="font-family: 'Open Sans', verdana, arial, sans-serif; font-size: 24px; fill: rgb(68, 68, 68); fill-opacity: 1; white-space: pre;" transform="translate(857.0944728952737,891.3353067771058)scale(0.8089786390750521)rotate(40.7497048406139)"> enemy</text></g></g><g class="slice"><path class="surface" d="M719.3123856749945,755.0558279739804L898.124771349989,900.1116559479608A460.5,460.5 0,0,0 929.7334399386334,856.0844961259004L735.1167199693167,733.0422480629502A230.25,230.25 0,0,1 719.3123856749945,755.0558279739804Z" style="pointer-events: all; stroke-width: 1; fill: rgb(173, 211, 230); fill-opacity: 1; stroke: rgb(255, 255, 255); stroke-opacity: 1; opacity: 1;"/><g class="slicetext"><text data-notex="1" class="slicetext" text-anchor="middle" x="0" y="0" style="font-family: 'Open Sans', verdana, arial, sans-serif; font-size: 24px; fill: rgb(68, 68, 68); fill-opacity: 1; white-space: pre;" transform="translate(845.6278878841894,838.9104248424024)rotate(35.67591499409684)"> computer</text></g></g><g class="slice"><path class="surface" d="M735.1167199693167,733.0422480629502L929.7334399386334,856.0844961259004A460.5,460.5 0,0,0 951.8117903016835,817.0817740865283L746.1558951508417,713.5408870432641A230.25,230.25 0,0,1 735.1167199693167,733.0422480629502Z" style="pointer-events: all; stroke-width: 1; fill: rgb(141, 194, 220); fill-opacity: 1; stroke: rgb(255, 255, 255); stroke-opacity: 1; opacity: 1;"/><g class="slicetext"><text data-notex="1" class="slicetext" text-anchor="middle" x="0" y="0" style="font-family: 'Open Sans', verdana, arial, sans-serif; font-size: 24px; fill: rgb(68, 68, 68); fill-opacity: 1; white-space: pre;" transform="translate(870.6361126839428,806.0736456853226)rotate(29.512987012987026)"> recognition</text></g></g><g class="slice"><path class="surface" d="M746.1558951508417,713.5408870432641L951.8117903016835,817.0817740865283A460.5,460.5 0,0,0 958.4941070521459,803.2386515935132L749.4970535260729,706.6193257967566A230.25,230.25 0,0,1 746.1558951508417,713.5408870432641Z" style="pointer-events: all; stroke-width: 1; fill: rgb(239, 243, 245); fill-opacity: 1; stroke: rgb(255, 255, 255); stroke-opacity: 1; opacity: 1;"/><g class="slicetext"><text data-notex="1" class="slicetext" text-anchor="middle" x="0" y="0" style="font-family: 'Open Sans', verdana, arial, sans-serif; font-size: 24px; fill: rgb(68, 68, 68); fill-opacity: 1; white-space: pre;" transform="translate(939.2007217291138,806.9433688215084)scale(0.50471940176919)rotate(25.767414403778048)"> data</text></g></g><g class="slice"><path class="surface" d="M749.4970535260729,706.6193257967566L958.4941070521459,803.2386515935132A460.5,460.5 0,0,0 962.5199796236159,794.2807282340798L751.5099898118079,702.1403641170399A230.25,230.25 0,0,1 749.4970535260729,706.6193257967566Z" style="pointer-events: all; stroke-width: 1; fill: rgb(234, 241, 245); fill-opacity: 1; stroke: rgb(255, 255, 255); stroke-opacity: 1; opacity: 1;"/><g class="slicetext"><text data-notex="1" class="slicetext" text-anchor="middle" x="0" y="0" style="font-family: 'Open Sans', verdana, arial, sans-serif; font-size: 24px; fill: rgb(68, 68, 68); fill-opacity: 1; white-space: pre;" transform="translate(943.8632053639545,794.0906436525142)scale(0.3204995956279574)rotate(24.200118063754417)"> network</text></g></g><g class="slice"><path class="surface" d="M751.5099898118079,702.1403641170399L962.5199796236159,794.2807282340798A460.5,460.5 0,0,0 965.8647745366587,786.4229536749045L753.1823872683294,698.2114768374523A230.25,230.25 0,0,1 751.5099898118079,702.1403641170399Z" style="pointer-events: all; stroke-width: 1; fill: rgb(83, 157, 200); fill-opacity: 1; stroke: rgb(255, 255, 255); stroke-opacity: 1; opacity: 1;"/><g class="slicetext"><text data-notex="1" class="slicetext" text-anchor="middle" x="0" y="0" style="font-family: 'Open Sans', verdana, arial, sans-serif; font-size: 24px; fill: rgb(68, 68, 68); fill-opacity: 1; white-space: pre;" transform="translate(948.8340638385921,786.2527248634002)scale(0.2804506634614588)rotate(23.05785123966939)"> machine</text></g></g><g class="slice"><path class="surface" d="M753.1823872683294,698.2114768374523L965.8647745366587,786.4229536749045A460.5,460.5 0,0,0 977.2316386489081,756.0333037462331L758.865819324454,683.0166518731165A230.25,230.25 0,0,1 753.1823872683294,698.2114768374523Z" style="pointer-events: all; stroke-width: 1; fill: rgb(179, 214, 231); fill-opacity: 1; stroke: rgb(255, 255, 255); stroke-opacity: 1; opacity: 1;"/><g class="slicetext"><text data-notex="1" class="slicetext" text-anchor="middle" x="0" y="0" style="font-family: 'Open Sans', verdana, arial, sans-serif; font-size: 24px; fill: rgb(68, 68, 68); fill-opacity: 1; white-space: pre;" transform="translate(923.4747238037426,760.9487370005834)scale(0.9017226798872999)rotate(20.507674144037765)">autopilot</text></g></g><g class="slice"><path class="surface" d="M758.865819324454,683.0166518731165L977.2316386489081,756.0333037462331A460.5,460.5 0,0,0 986.3236716789149,725.332145435395L763.4118358394575,667.6660727176975A230.25,230.25 0,0,1 758.865819324454,683.0166518731165Z" style="pointer-events: all; stroke-width: 1; fill: rgb(171, 210, 229); fill-opacity: 1; stroke: rgb(255, 255, 255); stroke-opacity: 1; opacity: 1;"/><g class="slicetext"><text data-notex="1" class="slicetext" text-anchor="middle" x="0" y="0" style="font-family: 'Open Sans', verdana, arial, sans-serif; font-size: 24px; fill: rgb(68, 68, 68); fill-opacity: 1; white-space: pre;" transform="translate(950.2916185328506,739.5246787482322)scale(0.978784217597552)rotate(16.49645808736716)"> data</text></g></g><g class="slice"><path class="surface" d="M763.4118358394575,667.6660727176975L986.3236716789149,725.332145435395A460.5,460.5 0,0,0 989.4543035597297,712.470890086883L764.9771517798649,661.2354450434415A230.25,230.25 0,0,1 763.4118358394575,667.6660727176975Z" style="pointer-events: all; stroke-width: 1; fill: rgb(218, 233, 242); fill-opacity: 1; stroke: rgb(255, 255, 255); stroke-opacity: 1; opacity: 1;"/><g class="slicetext"><text data-notex="1" class="slicetext" text-anchor="middle" x="0" y="0" style="font-family: 'Open Sans', verdana, arial, sans-serif; font-size: 24px; fill: rgb(68, 68, 68); fill-opacity: 1; white-space: pre;" transform="translate(974.1899906603894,719.1876053736602)scale(0.4397397748175914)rotate(13.680637544273964)"> post</text></g></g><g class="slice"><path class="surface" d="M764.9771517798649,661.2354450434415L989.4543035597297,712.470890086883A460.5,460.5 0,0,0 991.3644447345962,703.7096711880062L765.9322223672981,656.8548355940031A230.25,230.25 0,0,1 764.9771517798649,661.2354450434415Z" style="pointer-events: all; stroke-width: 1; fill: rgb(93, 164, 204); fill-opacity: 1; stroke: rgb(255, 255, 255); stroke-opacity: 1; opacity: 1;"/><g class="slicetext"><text data-notex="1" class="slicetext" text-anchor="middle" x="0" y="0" style="font-family: 'Open Sans', verdana, arial, sans-serif; font-size: 24px; fill: rgb(68, 68, 68); fill-opacity: 1; white-space: pre;" transform="translate(963.5923936997842,704.528752451771)scale(0.279090378351528)rotate(12.299291617473443)"> supercomputer</text></g></g><g class="slice"><path class="surface" d="M765.9322223672981,656.8548355940031L991.3644447345962,703.7096711880062A460.5,460.5 0,0,0 993.024698305669,695.3325695345177L766.7623491528345,652.6662847672588A230.25,230.25 0,0,1 765.9322223672981,656.8548355940031Z" style="pointer-events: all; stroke-width: 1; fill: rgb(60, 138, 190); fill-opacity: 1; stroke: rgb(255, 255, 255); stroke-opacity: 1; opacity: 1;"/><g class="slicetext"><text data-notex="1" class="slicetext" text-anchor="middle" x="0" y="0" style="font-family: 'Open Sans', verdana, arial, sans-serif; font-size: 24px; fill: rgb(255, 255, 255); fill-opacity: 1; white-space: pre;" transform="translate(971.7477819577986,697.7061963308398)scale(0.2743408325626275)rotate(11.210153482880742)"> intelligence</text></g></g><g class="slice"><path class="surface" d="M766.7623491528345,652.6662847672588L993.024698305669,695.3325695345177A460.5,460.5 0,0,0 999.5365451771878,646.6837864974655L770.0182725885938,628.3418932487327A230.25,230.25 0,0,1 766.7623491528345,652.6662847672588Z" style="pointer-events: all; stroke-width: 1; fill: rgb(65, 144, 194); fill-opacity: 1; stroke: rgb(255, 255, 255); stroke-opacity: 1; opacity: 1;"/><g class="slicetext"><text data-notex="1" class="slicetext" text-anchor="middle" x="0" y="0" style="font-family: 'Open Sans', verdana, arial, sans-serif; font-size: 24px; fill: rgb(255, 255, 255); fill-opacity: 1; white-space: pre;" transform="translate(913.7356882304133,668.0305366717973)rotate(7.623966942148797)"> intelligence</text></g></g><g class="slice"><path class="surface" d="M770.0182725885938,628.3418932487327L999.5365451771878,646.6837864974655A460.5,460.5 0,0,0 1000.4647765628904,632.1958176567174L770.4823882814452,621.0979088283586A230.25,230.25 0,0,1 770.0182725885938,628.3418932487327Z" style="pointer-events: all; stroke-width: 1; fill: rgb(33, 102, 172); fill-opacity: 1; stroke: rgb(255, 255, 255); stroke-opacity: 1; opacity: 1;"/><g class="slicetext"><text data-notex="1" class="slicetext" text-anchor="middle" x="0" y="0" style="font-family: 'Open Sans', verdana, arial, sans-serif; font-size: 24px; fill: rgb(255, 255, 255); fill-opacity: 1; white-space: pre;" transform="translate(974.297383619518,641.4403813794436)scale(0.4549878283138094)rotate(3.6658795749705178)"> machine</text></g></g><g class="slice"><path class="surface" d="M770.4823882814452,621.0979088283586L1000.4647765628904,632.1958176567174A460.5,460.5 0,0,0 1000.8335122032267,622.381742310423L770.6667561016134,616.1908711552114A230.25,230.25 0,0,1 770.4823882814452,621.0979088283586Z" style="pointer-events: all; stroke-width: 1; fill: rgb(9, 55, 107); fill-opacity: 1; stroke: rgb(255, 255, 255); stroke-opacity: 1; opacity: 1;"/><g class="slicetext"><text data-notex="1" class="slicetext" text-anchor="middle" x="0" y="0" style="font-family: 'Open Sans', verdana, arial, sans-serif; font-size: 24px; fill: rgb(255, 255, 255); fill-opacity: 1; white-space: pre;" transform="translate(990.2264417301764,629.5442051542002)scale(0.3306452310870037)rotate(2.151711924439212)"> data</text></g></g><g class="slice"><path class="surface" d="M770.6667561016134,616.1908711552114L1000.8335122032267,622.381742310423A460.5,460.5 0,0,0 1000.9665424584052,615.5509707620977L770.7332712292026,612.7754853810488A230.25,230.25 0,0,1 770.6667561016134,616.1908711552114Z" style="pointer-events: all; stroke-width: 1; fill: rgb(5, 48, 97); fill-opacity: 1; stroke: rgb(255, 255, 255); stroke-opacity: 1; opacity: 1;"/><g class="slicetext"><text data-notex="1" class="slicetext" text-anchor="middle" x="0" y="0" style="font-family: 'Open Sans', verdana, arial, sans-serif; font-size: 24px; fill: rgb(255, 255, 255); fill-opacity: 1; white-space: pre;" transform="translate(993.6064382701746,620.6906336975856)scale(0.2332458780423957)rotate(1.1157024793388928)"> year</text></g></g><g class="slice"><path class="surface" d="M770.7332712292026,612.7754853810488L1000.9665424584052,615.5509707620977A460.5,460.5 0,0,0 1001,610.0000000000001L770.75,610A230.25,230.25 0,0,1 770.7332712292026,612.7754853810488Z" style="pointer-events: all; stroke-width: 1; fill: rgb(7, 52, 103); fill-opacity: 1; stroke: rgb(255, 255, 255); stroke-opacity: 1; opacity: 1;"/><g class="slicetext"><text data-notex="1" class="slicetext" text-anchor="middle" x="0" y="0" style="font-family: 'Open Sans', verdana, arial, sans-serif; font-size: 24px; fill: rgb(255, 255, 255); fill-opacity: 1; white-space: pre;" transform="translate(990.864021095467,614.2111367992918)scale(0.18707703871332898)rotate(0.3453364817001443)">autopilot</text></g></g></g></g><g class="glimages"/><defs id="topdefs-fe32cb"><g class="clips"/></defs><g class="layer-above"><g class="imagelayer"/><g class="shapelayer"/></g><g class="infolayer"><g class="cbcoloraxis colorbar" transform="translate(80,100)"><rect class="cbbg" x="939" y="0" width="168.5" height="1020" style="fill: rgb(0, 0, 0); fill-opacity: 0; stroke: rgb(68, 68, 68); stroke-opacity: 1; stroke-width: 0;"/><g class="cbfills" transform="translate(0,49)"><rect class="cbfill gradient_filled" x="949" y="0" width="30" height="961" style="fill: url('#gfe32cb-cbcoloraxis');"/></g><g class="cblines" transform="translate(0,49)"/><g class="cbaxis crisp" transform="translate(0,-100)"><g class="ycbcoloraxistick"><text text-anchor="start" x="984.3" y="8.399999999999999" transform="translate(0,1090.78)" style="font-family: 'Open Sans', verdana, arial, sans-serif; font-size: 24px; fill: rgb(42, 63, 95); fill-opacity: 1; white-space: pre; opacity: 1;">−0.6</text></g><g class="ycbcoloraxistick"><text text-anchor="start" x="984.3" y="8.399999999999999" style="font-family: 'Open Sans', verdana, arial, sans-serif; font-size: 24px; fill: rgb(42, 63, 95); fill-opacity: 1; white-space: pre; opacity: 1;" transform="translate(0,937.02)">−0.4</text></g><g class="ycbcoloraxistick"><text text-anchor="start" x="984.3" y="8.399999999999999" style="font-family: 'Open Sans', verdana, arial, sans-serif; font-size: 24px; fill: rgb(42, 63, 95); fill-opacity: 1; white-space: pre; opacity: 1;" transform="translate(0,783.26)">−0.2</text></g><g class="ycbcoloraxistick"><text text-anchor="start" x="984.3" y="8.399999999999999" style="font-family: 'Open Sans', verdana, arial, sans-serif; font-size: 24px; fill: rgb(42, 63, 95); fill-opacity: 1; white-space: pre; opacity: 1;" transform="translate(0,629.5)">0</text></g><g class="ycbcoloraxistick"><text text-anchor="start" x="984.3" y="8.399999999999999" style="font-family: 'Open Sans', verdana, arial, sans-serif; font-size: 24px; fill: rgb(42, 63, 95); fill-opacity: 1; white-space: pre; opacity: 1;" transform="translate(0,475.73999999999995)">0.2</text></g><g class="ycbcoloraxistick"><text text-anchor="start" x="984.3" y="8.399999999999999" style="font-family: 'Open Sans', verdana, arial, sans-serif; font-size: 24px; fill: rgb(42, 63, 95); fill-opacity: 1; white-space: pre; opacity: 1;" transform="translate(0,321.9799999999999)">0.4</text></g><g class="ycbcoloraxistick"><text text-anchor="start" x="984.3" y="8.399999999999999" style="font-family: 'Open Sans', verdana, arial, sans-serif; font-size: 24px; fill: rgb(42, 63, 95); fill-opacity: 1; white-space: pre; opacity: 1;" transform="translate(0,168.21999999999994)">0.6</text></g></g><g class="cbtitleunshift" transform="translate(-80,-100)"><g class="cbtitle" transform=""><text class="ycbcoloraxistitle" x="1029.42" y="134.75" text-anchor="start" style="font-family: 'Open Sans', verdana, arial, sans-serif; font-size: 29px; fill: rgb(42, 63, 95); opacity: 1; font-weight: normal; white-space: pre;">mean_sen</text></g></g><rect class="cboutline" x="949" y="49" width="30" height="961" style="stroke: rgb(68, 68, 68); stroke-opacity: 1; fill: none; stroke-width: 0;"/></g><g class="g-gtitle"><text class="gtitle" x="60" y="50" text-anchor="start" dy="0em" style="font-family: 'Open Sans', verdana, arial, sans-serif; font-size: 34px; fill: rgb(42, 63, 95); opacity: 1; font-weight: normal; white-space: pre;">Topics &amp; Subtopics (sentiment: NEUTRAL=0)</text></g></g></svg>