<svg class="main-svg" xmlns="http://www.w3.org/2000/svg" xmlns:xlink="http://www.w3.org/1999/xlink" width="3600" height="3600" style="" viewBox="0 0 1200 1200"><rect x="0" y="0" width="1200" height="1200" style="fill: rgb(255, 255, 255); fill-opacity: 1;"/><defs id="defs-4936b2"><g class="clips"/><g class="gradients"/><g class="patterns"/></defs><g class="bglayer"/><g class="layer-below"><g class="imagelayer"/><g class="shapelayer"/></g><g class="cartesianlayer"/><g class="polarlayer"/><g class="smithlayer"/><g class="ternarylayer"/><g class="geolayer"/><g class="funnelarealayer"/><g class="pielayer"/><g class="iciclelayer"/><g class="treemaplayer"/><g class="sunburstlayer"><g class="trace sunburst" stroke-linejoin="round" style="opacity: 1;"><g class="slice cursor-pointer"><path class="surface" d="M600,610L855,610A255,255 0,0,0 420.3578024526578,429.02021974717275L600,610A0,0 0,0,1 600,610Z" style="pointer-events: all; stroke-width: 1; fill: rgb(99, 110, 250); fill-opacity: 1; stroke: rgb(255, 255, 255); stroke-opacity: 1;"/><g class="slicetext"><text data-notex="1" class="slicetext" text-anchor="middle" x="0" y="0" style="font-family: 'Open Sans', verdana, arial, sans-serif; font-size: 24px; fill: rgb(255, 255, 255); fill-opacity: 1; white-space: pre;" transform="translate(646.5903840842741,498.1082356566335)rotate(22.60625737898465)">machine human interface</text></g></g><g class="slice cursor-pointer"><path class="surface" d="M600,610L420.3578024526578,429.02021974717275A255,255 0,0,0 369.3376079894093,718.7191837347603L600,610A0,0 0,0,1 600,610Z" style="pointer-events: all; stroke-width: 1; fill: rgb(239, 85, 59); fill-opacity: 1; stroke: rgb(255, 255, 255); stroke-opacity: 1;"/><g class="slicetext"><text data-notex="1" class="slicetext" text-anchor="middle" x="0" y="0" style="font-family: 'Open Sans', verdana, arial, sans-serif; font-size: 24px; fill: rgb(68, 68, 68); fill-opacity: 1; white-space: pre;" transform="translate(401.84662814690995,575.102313704076)scale(0.7784486982253255)rotate(-80.01180637544269)">natural language technology</text></g></g><g class="slice cursor-pointer"><path class="surface" d="M600,610L369.3376079894093,718.7191837347603A255,255 0,0,0 475.9280094148695,832.7804774935256L600,610A0,0 0,0,1 600,610Z" style="pointer-events: all; stroke-width: 1; fill: rgb(0, 204, 150); fill-opacity: 1; stroke: rgb(255, 255, 255); stroke-opacity: 1;"/><g class="slicetext"><text data-notex="1" class="slicetext" text-anchor="middle" x="0" y="0" style="font-family: 'Open Sans', verdana, arial, sans-serif; font-size: 24px; fill: rgb(68, 68, 68); fill-opacity: 1; white-space: pre;" transform="translate(497.4512018475059,715.4464547975475)scale(0.8780790710290818)rotate(-43.06080283353003)">research computing</text></g></g><g class="slice cursor-pointer"><path class="surface" d="M600,610L475.9280094148695,832.7804774935256A255,255 0,0,0 594.3255725950265,864.936856640278L600,610A0,0 0,0,1 600,610Z" style="pointer-events: all; stroke-width: 1; fill: rgb(171, 99, 250); fill-opacity: 1; stroke: rgb(255, 255, 255); stroke-opacity: 1;"/><g class="slicetext"><text data-notex="1" class="slicetext" text-anchor="middle" x="0" y="0" style="font-family: 'Open Sans', verdana, arial, sans-serif; font-size: 24px; fill: rgb(68, 68, 68); fill-opacity: 1; white-space: pre;" transform="translate(546.1244780252098,816.3659443671651)">finance</text></g></g><g class="slice cursor-pointer"><path class="surface" d="M600,610L594.3255725950265,864.936856640278A255,255 0,0,0 709.7874436301431,840.1558541970162L600,610A0,0 0,0,1 600,610Z" style="pointer-events: all; stroke-width: 1; fill: rgb(255, 161, 90); fill-opacity: 1; stroke: rgb(255, 255, 255); stroke-opacity: 1;"/><g class="slicetext"><text data-notex="1" class="slicetext" text-anchor="middle" x="0" y="0" style="font-family: 'Open Sans', verdana, arial, sans-serif; font-size: 24px; fill: rgb(68, 68, 68); fill-opacity: 1; white-space: pre;" transform="translate(625.7714822311896,768.1999563240946)rotate(77.88665879574967)">search engine</text></g></g><g class="slice cursor-pointer"><path class="surface" d="M600,610L709.7874436301431,840.1558541970162A255,255 0,0,0 798.0332610081373,770.6481482447991L600,610A0,0 0,0,1 600,610Z" style="pointer-events: all; stroke-width: 1; fill: rgb(25, 211, 243); fill-opacity: 1; stroke: rgb(255, 255, 255); stroke-opacity: 1;"/><g class="slicetext"><text data-notex="1" class="slicetext" text-anchor="middle" x="0" y="0" style="font-family: 'Open Sans', verdana, arial, sans-serif; font-size: 24px; fill: rgb(68, 68, 68); fill-opacity: 1; white-space: pre;" transform="translate(704.2320210239618,755.2601795635512)rotate(51.77390791027153)">gaming</text></g></g><g class="slice cursor-pointer"><path class="surface" d="M600,610L798.0332610081373,770.6481482447991A255,255 0,0,0 835.5440119584104,707.6934922629764L600,610A0,0 0,0,1 600,610Z" style="pointer-events: all; stroke-width: 1; fill: rgb(255, 102, 146); fill-opacity: 1; stroke: rgb(255, 255, 255); stroke-opacity: 1;"/><g class="slicetext"><text data-notex="1" class="slicetext" text-anchor="middle" x="0" y="0" style="font-family: 'Open Sans', verdana, arial, sans-serif; font-size: 24px; fill: rgb(68, 68, 68); fill-opacity: 1; white-space: pre;" transform="translate(742.2966267982149,702.7795926114329)scale(0.8584127401606293)rotate(30.788075560802838)">computer vision</text></g></g><g class="slice cursor-pointer"><path class="surface" d="M600,610L835.5440119584104,707.6934922629764A255,255 0,0,0 850.5837091594909,657.2525629344235L600,610A0,0 0,0,1 600,610Z" style="pointer-events: all; stroke-width: 1; fill: rgb(182, 232, 128); fill-opacity: 1; stroke: rgb(255, 255, 255); stroke-opacity: 1;"/><g class="slicetext"><text data-notex="1" class="slicetext" text-anchor="middle" x="0" y="0" style="font-family: 'Open Sans', verdana, arial, sans-serif; font-size: 24px; fill: rgb(68, 68, 68); fill-opacity: 1; white-space: pre;" transform="translate(777.6750581069679,670.242394337337)scale(0.8703829655372151)rotate(16.60271546635181)">social media</text></g></g><g class="slice cursor-pointer"><path class="surface" d="M600,610L850.5837091594909,657.2525629344235A255,255 0,0,0 855,610.0000000000001L600,610A0,0 0,0,1 600,610Z" style="pointer-events: all; stroke-width: 1; fill: rgb(255, 151, 255); fill-opacity: 1; stroke: rgb(255, 255, 255); stroke-opacity: 1;"/><g class="slicetext"><text data-notex="1" class="slicetext" text-anchor="middle" x="0" y="0" style="font-family: 'Open Sans', verdana, arial, sans-serif; font-size: 24px; fill: rgb(68, 68, 68); fill-opacity: 1; white-space: pre;" transform="translate(782.5408792357143,632.9787720398853)scale(0.7365706734791926)rotate(5.339433293978743)">transhumanism</text></g></g><g class="slice"><path class="surface" d="M855,610L1110,610A510,510 0,0,0 966.2641574554856,255.10485074683925L783.1320787277427,432.5524253734196A255,255 0,0,1 855,610Z" style="pointer-events: all; stroke-width: 1; fill: rgb(99, 110, 250); fill-opacity: 1; stroke: rgb(255, 255, 255); stroke-opacity: 1; opacity: 0.7;"/><g class="slicetext"><text data-notex="1" class="slicetext" text-anchor="middle" x="0" y="0" style="font-family: 'Open Sans', verdana, arial, sans-serif; font-size: 24px; fill: rgb(255, 255, 255); fill-opacity: 1; white-space: pre;" transform="translate(954.5266422781526,474.4134062143029)"> intelligence</text></g></g><g class="slice"><path class="surface" d="M783.1320787277427,432.5524253734196L966.2641574554856,255.10485074683925A510,510 0,0,0 680.061816230105,106.32341171944779L640.0309081150525,358.1617058597239A255,255 0,0,1 783.1320787277427,432.5524253734196Z" style="pointer-events: all; stroke-width: 1; fill: rgb(99, 110, 250); fill-opacity: 1; stroke: rgb(255, 255, 255); stroke-opacity: 1; opacity: 0.7;"/><g class="slicetext"><text data-notex="1" class="slicetext" text-anchor="middle" x="0" y="0" style="font-family: 'Open Sans', verdana, arial, sans-serif; font-size: 24px; fill: rgb(255, 255, 255); fill-opacity: 1; white-space: pre;" transform="translate(778.7177911515764,274.21081110263407)">autopilot</text></g></g><g class="slice"><path class="surface" d="M640.0309081150525,358.1617058597239L680.061816230105,106.32341171944779A510,510 0,0,0 487.89791458472405,112.47299325006873L543.948957292362,361.23649662503436A255,255 0,0,1 640.0309081150525,358.1617058597239Z" style="pointer-events: all; stroke-width: 1; fill: rgb(99, 110, 250); fill-opacity: 1; stroke: rgb(255, 255, 255); stroke-opacity: 1; opacity: 0.7;"/><g class="slicetext"><text data-notex="1" class="slicetext" text-anchor="middle" x="0" y="0" style="font-family: 'Open Sans', verdana, arial, sans-serif; font-size: 24px; fill: rgb(255, 255, 255); fill-opacity: 1; white-space: pre;" transform="translate(586.2745926068458,189.10450146767107)"> data</text></g></g><g class="slice"><path class="surface" d="M543.948957292362,361.23649662503436L487.89791458472405,112.47299325006873A510,510 0,0,0 345.68288813276115,167.93348168911695L472.8414440663806,388.96674084455844A255,255 0,0,1 543.948957292362,361.23649662503436Z" style="pointer-events: all; stroke-width: 1; fill: rgb(99, 110, 250); fill-opacity: 1; stroke: rgb(255, 255, 255); stroke-opacity: 1; opacity: 0.7;"/><g class="slicetext"><text data-notex="1" class="slicetext" text-anchor="middle" x="0" y="0" style="font-family: 'Open Sans', verdana, arial, sans-serif; font-size: 24px; fill: rgb(255, 255, 255); fill-opacity: 1; white-space: pre;" transform="translate(453.61123750551974,256.64016469917806)rotate(68.6953955135773)"> supercomputer</text></g></g><g class="slice"><path class="surface" d="M472.8414440663806,388.96674084455844L345.68288813276115,167.93348168911695A510,510 0,0,0 240.7156049053155,248.04043949434543L420.3578024526578,429.02021974717275A255,255 0,0,1 472.8414440663806,388.96674084455844Z" style="pointer-events: all; stroke-width: 1; fill: rgb(99, 110, 250); fill-opacity: 1; stroke: rgb(255, 255, 255); stroke-opacity: 1; opacity: 0.7;"/><g class="slicetext"><text data-notex="1" class="slicetext" text-anchor="middle" x="0" y="0" style="font-family: 'Open Sans', verdana, arial, sans-serif; font-size: 24px; fill: rgb(255, 255, 255); fill-opacity: 1; white-space: pre;" transform="translate(361.79128743327954,311.05242986835964)rotate(52.650531286894875)"> computer</text></g></g><g class="slice"><path class="surface" d="M420.3578024526578,429.02021974717275L240.7156049053155,248.04043949434543A510,510 0,0,0 98.92042894889238,515.0301970348576L349.46021447444616,562.5150985174288A255,255 0,0,1 420.3578024526578,429.02021974717275Z" style="pointer-events: all; stroke-width: 1; fill: rgb(239, 85, 59); fill-opacity: 1; stroke: rgb(255, 255, 255); stroke-opacity: 1; opacity: 0.7;"/><g class="slicetext"><text data-notex="1" class="slicetext" text-anchor="middle" x="0" y="0" style="font-family: 'Open Sans', verdana, arial, sans-serif; font-size: 24px; fill: rgb(68, 68, 68); fill-opacity: 1; white-space: pre;" transform="translate(252.55601482341922,433.47651315560796)"> recognition</text></g></g><g class="slice"><path class="surface" d="M349.46021447444616,562.5150985174288L98.92042894889238,515.0301970348576A510,510 0,0,0 90.18438387916257,623.7126787802725L345.0921919395813,616.8563393901363A255,255 0,0,1 349.46021447444616,562.5150985174288Z" style="pointer-events: all; stroke-width: 1; fill: rgb(239, 85, 59); fill-opacity: 1; stroke: rgb(255, 255, 255); stroke-opacity: 1; opacity: 0.7;"/><g class="slicetext"><text data-notex="1" class="slicetext" text-anchor="middle" x="0" y="0" style="font-family: 'Open Sans', verdana, arial, sans-serif; font-size: 24px; fill: rgb(68, 68, 68); fill-opacity: 1; white-space: pre;" transform="translate(140.73305135279043,581.0835006894885)"> data</text></g></g><g class="slice"><path class="surface" d="M345.0921919395813,616.8563393901363L90.18438387916257,623.7126787802725A510,510 0,0,0 97.48568062071087,697.059513085991L348.7428403103554,653.5297565429955A255,255 0,0,1 345.0921919395813,616.8563393901363Z" style="pointer-events: all; stroke-width: 1; fill: rgb(239, 85, 59); fill-opacity: 1; stroke: rgb(255, 255, 255); stroke-opacity: 1; opacity: 0.7;"/><g class="slicetext"><text data-notex="1" class="slicetext" text-anchor="middle" x="0" y="0" style="font-family: 'Open Sans', verdana, arial, sans-serif; font-size: 24px; fill: rgb(68, 68, 68); fill-opacity: 1; white-space: pre;" transform="translate(190.6106893147159,658.7921204327411)rotate(-5.6847697756788875)"> language</text></g></g><g class="slice"><path class="surface" d="M348.7428403103554,653.5297565429955L97.48568062071087,697.059513085991A510,510 0,0,0 114.5536294976045,766.3388031361727L357.2768147488023,688.1694015680863A255,255 0,0,1 348.7428403103554,653.5297565429955Z" style="pointer-events: all; stroke-width: 1; fill: rgb(239, 85, 59); fill-opacity: 1; stroke: rgb(255, 255, 255); stroke-opacity: 1; opacity: 0.7;"/><g class="slicetext"><text data-notex="1" class="slicetext" text-anchor="middle" x="0" y="0" style="font-family: 'Open Sans', verdana, arial, sans-serif; font-size: 24px; fill: rgb(68, 68, 68); fill-opacity: 1; white-space: pre;" transform="translate(193.3770368811685,718.4166168999176)rotate(-13.840023612750883)">autopilot</text></g></g><g class="slice"><path class="surface" d="M357.2768147488023,688.1694015680863L114.5536294976045,766.3388031361727A510,510 0,0,0 138.67521597881876,827.4383674695209L369.3376079894094,718.7191837347605A255,255 0,0,1 357.2768147488023,688.1694015680863Z" style="pointer-events: all; stroke-width: 1; fill: rgb(239, 85, 59); fill-opacity: 1; stroke: rgb(255, 255, 255); stroke-opacity: 1; opacity: 0.7;"/><g class="slicetext"><text data-notex="1" class="slicetext" text-anchor="middle" x="0" y="0" style="font-family: 'Open Sans', verdana, arial, sans-serif; font-size: 24px; fill: rgb(68, 68, 68); fill-opacity: 1; white-space: pre;" transform="translate(220.54645539676022,768.4058960614483)rotate(-21.54368358913814)"> translation</text></g></g><g class="slice"><path class="surface" d="M369.3376079894093,718.7191837347603L138.67521597881864,827.4383674695208A510,510 0,0,0 238.04043949434538,969.2843950946844L419.0202197471727,789.6421975473422A255,255 0,0,1 369.3376079894093,718.7191837347603Z" style="pointer-events: all; stroke-width: 1; fill: rgb(0, 204, 150); fill-opacity: 1; stroke: rgb(255, 255, 255); stroke-opacity: 1; opacity: 0.7;"/><g class="slicetext"><text data-notex="1" class="slicetext" text-anchor="middle" x="0" y="0" style="font-family: 'Open Sans', verdana, arial, sans-serif; font-size: 24px; fill: rgb(68, 68, 68); fill-opacity: 1; white-space: pre;" transform="translate(242.92152454454725,868.138711109878)"> data</text></g></g><g class="slice"><path class="surface" d="M419.0202197471727,789.6421975473422L238.04043949434538,969.2843950946844A510,510 0,0,0 273.9527721328686,1002.1647679230746L436.9763860664343,806.0823839615373A255,255 0,0,1 419.0202197471727,789.6421975473422Z" style="pointer-events: all; stroke-width: 1; fill: rgb(0, 204, 150); fill-opacity: 1; stroke: rgb(255, 255, 255); stroke-opacity: 1; opacity: 0.7;"/><g class="slicetext"><text data-notex="1" class="slicetext" text-anchor="middle" x="0" y="0" style="font-family: 'Open Sans', verdana, arial, sans-serif; font-size: 24px; fill: rgb(68, 68, 68); fill-opacity: 1; white-space: pre;" transform="translate(329.44389911325055,917.3514048404061)rotate(-47.52361275088549)"> supercomputer</text></g></g><g class="slice"><path class="surface" d="M436.9763860664343,806.0823839615373L273.9527721328686,1002.1647679230746A510,510 0,0,0 299.6941472427218,1022.20916389586L449.8470736213609,816.10458194793A255,255 0,0,1 436.9763860664343,806.0823839615373Z" style="pointer-events: all; stroke-width: 1; fill: rgb(0, 204, 150); fill-opacity: 1; stroke: rgb(255, 255, 255); stroke-opacity: 1; opacity: 0.7;"/><g class="slicetext"><text data-notex="1" class="slicetext" text-anchor="middle" x="0" y="0" style="font-family: 'Open Sans', verdana, arial, sans-serif; font-size: 24px; fill: rgb(68, 68, 68); fill-opacity: 1; white-space: pre;" transform="translate(324.2120628809367,976.1379643287247)scale(0.9189768931042036)rotate(-52.092680047225485)"> machine</text></g></g><g class="slice"><path class="surface" d="M449.8470736213609,816.10458194793L299.6941472427218,1022.20916389586A510,510 0,0,0 326.26531701121337,1040.3130527058509L463.1326585056067,825.1565263529254A255,255 0,0,1 449.8470736213609,816.10458194793Z" style="pointer-events: all; stroke-width: 1; fill: rgb(0, 204, 150); fill-opacity: 1; stroke: rgb(255, 255, 255); stroke-opacity: 1; opacity: 0.7;"/><g class="slicetext"><text data-notex="1" class="slicetext" text-anchor="middle" x="0" y="0" style="font-family: 'Open Sans', verdana, arial, sans-serif; font-size: 24px; fill: rgb(68, 68, 68); fill-opacity: 1; white-space: pre;" transform="translate(354.2416338115797,982.8181665720773)scale(0.8528572321328388)rotate(-55.73199527744987)"> intelligence</text></g></g><g class="slice"><path class="surface" d="M463.1326585056067,825.1565263529254L326.26531701121337,1040.3130527058509A510,510 0,0,0 351.85601882973856,1055.560954987051L475.9280094148693,832.7804774935255A255,255 0,0,1 463.1326585056067,825.1565263529254Z" style="pointer-events: all; stroke-width: 1; fill: rgb(0, 204, 150); fill-opacity: 1; stroke: rgb(255, 255, 255); stroke-opacity: 1; opacity: 0.7;"/><g class="slicetext"><text data-notex="1" class="slicetext" text-anchor="middle" x="0" y="0" style="font-family: 'Open Sans', verdana, arial, sans-serif; font-size: 24px; fill: rgb(68, 68, 68); fill-opacity: 1; white-space: pre;" transform="translate(371.4783146134423,1006.5966640424436)scale(0.836034654428543)rotate(-59.21192443919722)"> computer</text></g></g><g class="slice"><path class="surface" d="M475.9280094148695,832.7804774935256L351.85601882973896,1055.5609549870512A510,510 0,0,0 535.3857264255065,1115.8903000161602L567.6928632127533,862.9451500080801A255,255 0,0,1 475.9280094148695,832.7804774935256Z" style="pointer-events: all; stroke-width: 1; fill: rgb(171, 99, 250); fill-opacity: 1; stroke: rgb(255, 255, 255); stroke-opacity: 1; opacity: 0.7;"/><g class="slicetext"><text data-notex="1" class="slicetext" text-anchor="middle" x="0" y="0" style="font-family: 'Open Sans', verdana, arial, sans-serif; font-size: 24px; fill: rgb(68, 68, 68); fill-opacity: 1; white-space: pre;" transform="translate(466.09933110490897,1025.3432356564863)">autopilot</text></g></g><g class="slice"><path class="surface" d="M567.6928632127533,862.9451500080801L535.3857264255065,1115.8903000161602A510,510 0,0,0 557.0164247895905,1118.1854113039167L578.5082123947952,864.0927056519583A255,255 0,0,1 567.6928632127533,862.9451500080801Z" style="pointer-events: all; stroke-width: 1; fill: rgb(171, 99, 250); fill-opacity: 1; stroke: rgb(255, 255, 255); stroke-opacity: 1; opacity: 0.7;"/><g class="slicetext"><text data-notex="1" class="slicetext" text-anchor="middle" x="0" y="0" style="font-family: 'Open Sans', verdana, arial, sans-serif; font-size: 24px; fill: rgb(68, 68, 68); fill-opacity: 1; white-space: pre;" transform="translate(554.0931419866125,1095.867915933688)scale(0.7017910761042577)rotate(-83.94332939787489)"> data</text></g></g><g class="slice"><path class="surface" d="M578.5082123947952,864.0927056519583L557.0164247895905,1118.1854113039167A510,510 0,0,0 572.1123453617341,1119.2369573379144L586.0561726808671,864.6184786689572A255,255 0,0,1 578.5082123947952,864.0927056519583Z" style="pointer-events: all; stroke-width: 1; fill: rgb(171, 99, 250); fill-opacity: 1; stroke: rgb(255, 255, 255); stroke-opacity: 1; opacity: 0.7;"/><g class="slicetext"><text data-notex="1" class="slicetext" text-anchor="middle" x="0" y="0" style="font-family: 'Open Sans', verdana, arial, sans-serif; font-size: 24px; fill: rgb(68, 68, 68); fill-opacity: 1; white-space: pre;" transform="translate(570.6383149931379,1084.7210812641051)scale(0.46216259887117134)rotate(-86.01534828807553)"> intelligence</text></g></g><g class="slice"><path class="surface" d="M586.0561726808671,864.6184786689572L572.1123453617341,1119.2369573379144A510,510 0,0,0 582.0332150202063,1119.6834259003228L591.0166075101032,864.8417129501614A255,255 0,0,1 586.0561726808671,864.6184786689572Z" style="pointer-events: all; stroke-width: 1; fill: rgb(171, 99, 250); fill-opacity: 1; stroke: rgb(255, 255, 255); stroke-opacity: 1; opacity: 0.7;"/><g class="slicetext"><text data-notex="1" class="slicetext" text-anchor="middle" x="0" y="0" style="font-family: 'Open Sans', verdana, arial, sans-serif; font-size: 24px; fill: rgb(68, 68, 68); fill-opacity: 1; white-space: pre;" transform="translate(580.6559812691089,1096.578024211925)scale(0.3188567371315384)rotate(-87.42325855962224)"> recognition</text></g></g><g class="slice"><path class="surface" d="M591.0166075101032,864.8417129501614L582.0332150202063,1119.6834259003228A510,510 0,0,0 588.6511451900534,1119.873713280556L594.3255725950268,864.936856640278A255,255 0,0,1 591.0166075101032,864.8417129501614Z" style="pointer-events: all; stroke-width: 1; fill: rgb(171, 99, 250); fill-opacity: 1; stroke: rgb(255, 255, 255); stroke-opacity: 1; opacity: 0.7;"/><g class="slicetext"><text data-notex="1" class="slicetext" text-anchor="middle" x="0" y="0" style="font-family: 'Open Sans', verdana, arial, sans-serif; font-size: 24px; fill: rgb(68, 68, 68); fill-opacity: 1; white-space: pre;" transform="translate(587.3630337368436,1112.723081797574)scale(0.2271542470408243)rotate(-88.35301062573797)"> time</text></g></g><g class="slice"><path class="surface" d="M594.3255725950265,864.936856640278L588.651145190053,1119.873713280556A510,510 0,0,0 713.9466786569328,1107.1077895417188L656.9733393284664,858.5538947708594A255,255 0,0,1 594.3255725950265,864.936856640278Z" style="pointer-events: all; stroke-width: 1; fill: rgb(255, 161, 90); fill-opacity: 1; stroke: rgb(255, 255, 255); stroke-opacity: 1; opacity: 0.7;"/><g class="slicetext"><text data-notex="1" class="slicetext" text-anchor="middle" x="0" y="0" style="font-family: 'Open Sans', verdana, arial, sans-serif; font-size: 24px; fill: rgb(68, 68, 68); fill-opacity: 1; white-space: pre;" transform="translate(646.0130456898825,1069.6108057743083)"> data</text></g></g><g class="slice"><path class="surface" d="M656.9733393284664,858.5538947708594L713.9466786569328,1107.1077895417188A510,510 0,0,0 761.7306947026688,1093.676733357097L680.8653473513344,851.8383666785485A255,255 0,0,1 656.9733393284664,858.5538947708594Z" style="pointer-events: all; stroke-width: 1; fill: rgb(255, 161, 90); fill-opacity: 1; stroke: rgb(255, 255, 255); stroke-opacity: 1; opacity: 0.7;"/><g class="slicetext"><text data-notex="1" class="slicetext" text-anchor="middle" x="0" y="0" style="font-family: 'Open Sans', verdana, arial, sans-serif; font-size: 24px; fill: rgb(68, 68, 68); fill-opacity: 1; white-space: pre;" transform="translate(711.5432985921074,1036.4052292108631)rotate(74.30047225501767)">autopilot</text></g></g><g class="slice"><path class="surface" d="M680.8653473513344,851.8383666785485L761.7306947026688,1093.676733357097A510,510 0,0,0 787.4972652826876,1084.2834337308373L693.7486326413439,847.1417168654186A255,255 0,0,1 680.8653473513344,851.8383666785485Z" style="pointer-events: all; stroke-width: 1; fill: rgb(255, 161, 90); fill-opacity: 1; stroke: rgb(255, 255, 255); stroke-opacity: 1; opacity: 0.7;"/><g class="slicetext"><text data-notex="1" class="slicetext" text-anchor="middle" x="0" y="0" style="font-family: 'Open Sans', verdana, arial, sans-serif; font-size: 24px; fill: rgb(68, 68, 68); fill-opacity: 1; white-space: pre;" transform="translate(754.68093332869,1053.3326002406732)scale(0.8147512833601951)rotate(69.97048406139311)"> science</text></g></g><g class="slice"><path class="surface" d="M693.7486326413439,847.1417168654186L787.4972652826876,1084.2834337308373A510,510 0,0,0 806.6865805899448,1076.2409864051383L703.3432902949725,843.1204932025692A255,255 0,0,1 693.7486326413439,847.1417168654186Z" style="pointer-events: all; stroke-width: 1; fill: rgb(255, 161, 90); fill-opacity: 1; stroke: rgb(255, 255, 255); stroke-opacity: 1; opacity: 0.7;"/><g class="slicetext"><text data-notex="1" class="slicetext" text-anchor="middle" x="0" y="0" style="font-family: 'Open Sans', verdana, arial, sans-serif; font-size: 24px; fill: rgb(68, 68, 68); fill-opacity: 1; white-space: pre;" transform="translate(775.2662494047848,1040.7058161900184)scale(0.6049159976643244)rotate(67.26092089728445)"> intelligence</text></g></g><g class="slice"><path class="surface" d="M703.3432902949725,843.1204932025692L806.6865805899448,1076.2409864051383A510,510 0,0,0 819.5748872602862,1070.3117083940324L709.7874436301431,840.1558541970162A255,255 0,0,1 703.3432902949725,843.1204932025692Z" style="pointer-events: all; stroke-width: 1; fill: rgb(255, 161, 90); fill-opacity: 1; stroke: rgb(255, 255, 255); stroke-opacity: 1; opacity: 0.7;"/><g class="slicetext"><text data-notex="1" class="slicetext" text-anchor="middle" x="0" y="0" style="font-family: 'Open Sans', verdana, arial, sans-serif; font-size: 24px; fill: rgb(68, 68, 68); fill-opacity: 1; white-space: pre;" transform="translate(796.7136450158124,1045.985147474381)scale(0.4385364181557772)rotate(65.29515938606846)"> recognition</text></g></g><g class="slice"><path class="surface" d="M709.7874436301431,840.1558541970162L819.5748872602862,1070.3117083940324A510,510 0,0,0 881.2731242919781,1035.4238234408476L740.636562145989,822.7119117204238A255,255 0,0,1 709.7874436301431,840.1558541970162Z" style="pointer-events: all; stroke-width: 1; fill: rgb(25, 211, 243); fill-opacity: 1; stroke: rgb(255, 255, 255); stroke-opacity: 1; opacity: 0.7;"/><g class="slicetext"><text data-notex="1" class="slicetext" text-anchor="middle" x="0" y="0" style="font-family: 'Open Sans', verdana, arial, sans-serif; font-size: 24px; fill: rgb(68, 68, 68); fill-opacity: 1; white-space: pre;" transform="translate(790.9109656476311,963.8736232164541)rotate(60.513577331759166)"> intelligence</text></g></g><g class="slice"><path class="surface" d="M740.636562145989,822.7119117204238L881.2731242919781,1035.4238234408476A510,510 0,0,0 923.1291407879751,1004.5726275017375L761.5645703939875,807.2863137508688A255,255 0,0,1 740.636562145989,822.7119117204238Z" style="pointer-events: all; stroke-width: 1; fill: rgb(25, 211, 243); fill-opacity: 1; stroke: rgb(255, 255, 255); stroke-opacity: 1; opacity: 0.7;"/><g class="slicetext"><text data-notex="1" class="slicetext" text-anchor="middle" x="0" y="0" style="font-family: 'Open Sans', verdana, arial, sans-serif; font-size: 24px; fill: rgb(68, 68, 68); fill-opacity: 1; white-space: pre;" transform="translate(868.0675697992913,987.1723888024228)rotate(53.606847697756734)"> time</text></g></g><g class="slice"><path class="surface" d="M761.5645703939875,807.2863137508688L923.1291407879751,1004.5726275017375A510,510 0,0,0 954.2152874032297,976.9216948748701L777.1076437016148,793.4608474374351A255,255 0,0,1 761.5645703939875,807.2863137508688Z" style="pointer-events: all; stroke-width: 1; fill: rgb(25, 211, 243); fill-opacity: 1; stroke: rgb(255, 255, 255); stroke-opacity: 1; opacity: 0.7;"/><g class="slicetext"><text data-notex="1" class="slicetext" text-anchor="middle" x="0" y="0" style="font-family: 'Open Sans', verdana, arial, sans-serif; font-size: 24px; fill: rgb(68, 68, 68); fill-opacity: 1; white-space: pre;" transform="translate(905.8878320790038,965.9268322302453)rotate(48.34710743801651)"> level</text></g></g><g class="slice"><path class="surface" d="M777.1076437016148,793.4608474374351L954.2152874032297,976.9216948748701A510,510 0,0,0 976.3130399920717,954.2215797011067L788.1565199960359,782.1107898505534A255,255 0,0,1 777.1076437016148,793.4608474374351Z" style="pointer-events: all; stroke-width: 1; fill: rgb(25, 211, 243); fill-opacity: 1; stroke: rgb(255, 255, 255); stroke-opacity: 1; opacity: 0.7;"/><g class="slicetext"><text data-notex="1" class="slicetext" text-anchor="middle" x="0" y="0" style="font-family: 'Open Sans', verdana, arial, sans-serif; font-size: 24px; fill: rgb(68, 68, 68); fill-opacity: 1; white-space: pre;" transform="translate(921.0871213972608,932.3660052942446)scale(0.8776969259294752)rotate(44.229634002361195)"> computer</text></g></g><g class="slice"><path class="surface" d="M788.1565199960359,782.1107898505534L976.3130399920717,954.2215797011067A510,510 0,0,0 996.0665220162748,931.296296489598L798.0332610081374,770.648148244799A255,255 0,0,1 788.1565199960359,782.1107898505534Z" style="pointer-events: all; stroke-width: 1; fill: rgb(25, 211, 243); fill-opacity: 1; stroke: rgb(255, 255, 255); stroke-opacity: 1; opacity: 0.7;"/><g class="slicetext"><text data-notex="1" class="slicetext" text-anchor="middle" x="0" y="0" style="font-family: 'Open Sans', verdana, arial, sans-serif; font-size: 24px; fill: rgb(68, 68, 68); fill-opacity: 1; white-space: pre;" transform="translate(950.6198058552569,921.583518568474)scale(0.8970852235287705)rotate(40.7497048406139)"> enemy</text></g></g><g class="slice"><path class="surface" d="M798.0332610081373,770.6481482447991L996.0665220162746,931.2962964895984A510,510 0,0,0 1031.0728650786168,882.5365755140265L815.5364325393084,746.2682877570132A255,255 0,0,1 798.0332610081373,770.6481482447991Z" style="pointer-events: all; stroke-width: 1; fill: rgb(255, 102, 146); fill-opacity: 1; stroke: rgb(255, 255, 255); stroke-opacity: 1; opacity: 0.7;"/><g class="slicetext"><text data-notex="1" class="slicetext" text-anchor="middle" x="0" y="0" style="font-family: 'Open Sans', verdana, arial, sans-serif; font-size: 24px; fill: rgb(68, 68, 68); fill-opacity: 1; white-space: pre;" transform="translate(938.4343045009947,862.822289449858)rotate(35.67591499409684)"> computer</text></g></g><g class="slice"><path class="surface" d="M815.5364325393084,746.2682877570132L1031.0728650786168,882.5365755140265A510,510 0,0,0 1055.5244583145682,839.3413784671649L827.7622291572841,724.6706892335824A255,255 0,0,1 815.5364325393084,746.2682877570132Z" style="pointer-events: all; stroke-width: 1; fill: rgb(255, 102, 146); fill-opacity: 1; stroke: rgb(255, 255, 255); stroke-opacity: 1; opacity: 0.7;"/><g class="slicetext"><text data-notex="1" class="slicetext" text-anchor="middle" x="0" y="0" style="font-family: 'Open Sans', verdana, arial, sans-serif; font-size: 24px; fill: rgb(68, 68, 68); fill-opacity: 1; white-space: pre;" transform="translate(966.046678211827,826.4016127092536)rotate(29.512987012987026)"> recognition</text></g></g><g class="slice"><path class="surface" d="M827.7622291572841,724.6706892335824L1055.5244583145682,839.3413784671649A510,510 0,0,0 1062.925069699445,824.0102330351613L831.4625348497225,717.0051165175806A255,255 0,0,1 827.7622291572841,724.6706892335824Z" style="pointer-events: all; stroke-width: 1; fill: rgb(255, 102, 146); fill-opacity: 1; stroke: rgb(255, 255, 255); stroke-opacity: 1; opacity: 0.7;"/><g class="slicetext"><text data-notex="1" class="slicetext" text-anchor="middle" x="0" y="0" style="font-family: 'Open Sans', verdana, arial, sans-serif; font-size: 24px; fill: rgb(68, 68, 68); fill-opacity: 1; white-space: pre;" transform="translate(1041.5553117511133,828.1183371825883)scale(0.5596888415658345)rotate(25.767414403778048)"> data</text></g></g><g class="slice"><path class="surface" d="M831.4625348497225,717.0051165175806L1062.925069699445,824.0102330351613A510,510 0,0,0 1067.3836907883694,814.0894058618474L833.6918453941847,712.0447029309237A255,255 0,0,1 831.4625348497225,717.0051165175806Z" style="pointer-events: all; stroke-width: 1; fill: rgb(255, 102, 146); fill-opacity: 1; stroke: rgb(255, 255, 255); stroke-opacity: 1; opacity: 0.7;"/><g class="slicetext"><text data-notex="1" class="slicetext" text-anchor="middle" x="0" y="0" style="font-family: 'Open Sans', verdana, arial, sans-serif; font-size: 24px; fill: rgb(68, 68, 68); fill-opacity: 1; white-space: pre;" transform="translate(1046.719951067152,813.882197194513)scale(0.35540549218149725)rotate(24.200118063754417)"> network</text></g></g><g class="slice"><path class="surface" d="M833.6918453941847,712.0447029309237L1067.3836907883694,814.0894058618474A510,510 0,0,0 1071.0880239168207,805.3869845259529L835.5440119584104,707.6934922629764A255,255 0,0,1 833.6918453941847,712.0447029309237Z" style="pointer-events: all; stroke-width: 1; fill: rgb(255, 102, 146); fill-opacity: 1; stroke: rgb(255, 255, 255); stroke-opacity: 1; opacity: 0.7;"/><g class="slicetext"><text data-notex="1" class="slicetext" text-anchor="middle" x="0" y="0" style="font-family: 'Open Sans', verdana, arial, sans-serif; font-size: 24px; fill: rgb(68, 68, 68); fill-opacity: 1; white-space: pre;" transform="translate(1052.2254035553876,805.2013869061102)scale(0.3109947951255781)rotate(23.05785123966939)"> machine</text></g></g><g class="slice"><path class="surface" d="M835.5440119584104,707.6934922629764L1071.0880239168207,805.3869845259529A510,510 0,0,0 1083.676733357097,771.7306947026685L841.8383666785485,690.8653473513343A255,255 0,0,1 835.5440119584104,707.6934922629764Z" style="pointer-events: all; stroke-width: 1; fill: rgb(182, 232, 128); fill-opacity: 1; stroke: rgb(255, 255, 255); stroke-opacity: 1; opacity: 0.7;"/><g class="slicetext"><text data-notex="1" class="slicetext" text-anchor="middle" x="0" y="0" style="font-family: 'Open Sans', verdana, arial, sans-serif; font-size: 24px; fill: rgb(68, 68, 68); fill-opacity: 1; white-space: pre;" transform="translate(1024.1378017074328,777.1840848660273)scale(0.9999301004690851)rotate(20.507674144037765)">autopilot</text></g></g><g class="slice"><path class="surface" d="M841.8383666785485,690.8653473513343L1083.676733357097,771.7306947026685A510,510 0,0,0 1093.7460858984725,737.7294118828478L846.8730429492363,673.864705941424A255,255 0,0,1 841.8383666785485,690.8653473513343Z" style="pointer-events: all; stroke-width: 1; fill: rgb(182, 232, 128); fill-opacity: 1; stroke: rgb(255, 255, 255); stroke-opacity: 1; opacity: 0.7;"/><g class="slicetext"><text data-notex="1" class="slicetext" text-anchor="middle" x="0" y="0" style="font-family: 'Open Sans', verdana, arial, sans-serif; font-size: 24px; fill: rgb(68, 68, 68); fill-opacity: 1; white-space: pre;" transform="translate(1054.0316888322382,752.8032224246331)rotate(16.49645808736716)"> data</text></g></g><g class="slice"><path class="surface" d="M846.8730429492363,673.864705941424L1093.7460858984725,737.7294118828478A510,510 0,0,0 1097.21323521273,723.4856763177205L848.606617606365,666.7428381588602A255,255 0,0,1 846.8730429492363,673.864705941424Z" style="pointer-events: all; stroke-width: 1; fill: rgb(182, 232, 128); fill-opacity: 1; stroke: rgb(255, 255, 255); stroke-opacity: 1; opacity: 0.7;"/><g class="slicetext"><text data-notex="1" class="slicetext" text-anchor="middle" x="0" y="0" style="font-family: 'Open Sans', verdana, arial, sans-serif; font-size: 24px; fill: rgb(68, 68, 68); fill-opacity: 1; white-space: pre;" transform="translate(1080.3069523108568,730.9292342195693)scale(0.4876322255402994)rotate(13.680637544273964)"> post</text></g></g><g class="slice"><path class="surface" d="M848.606617606365,666.7428381588602L1097.21323521273,723.4856763177205A510,510 0,0,0 1099.3287010089991,713.7826977326453L849.6643505044996,661.8913488663227A255,255 0,0,1 848.606617606365,666.7428381588602Z" style="pointer-events: all; stroke-width: 1; fill: rgb(182, 232, 128); fill-opacity: 1; stroke: rgb(255, 255, 255); stroke-opacity: 1; opacity: 0.7;"/><g class="slicetext"><text data-notex="1" class="slicetext" text-anchor="middle" x="0" y="0" style="font-family: 'Open Sans', verdana, arial, sans-serif; font-size: 24px; fill: rgb(68, 68, 68); fill-opacity: 1; white-space: pre;" transform="translate(1068.5706785291547,714.6929132228081)scale(0.30948636015218944)rotate(12.299291617473443)"> supercomputer</text></g></g><g class="slice"><path class="surface" d="M849.6643505044996,661.8913488663227L1099.3287010089991,713.7826977326453A510,510 0,0,0 1101.1674183189818,704.505125868847L850.5837091594909,657.2525629344235A255,255 0,0,1 849.6643505044996,661.8913488663227Z" style="pointer-events: all; stroke-width: 1; fill: rgb(182, 232, 128); fill-opacity: 1; stroke: rgb(255, 255, 255); stroke-opacity: 1; opacity: 0.7;"/><g class="slicetext"><text data-notex="1" class="slicetext" text-anchor="middle" x="0" y="0" style="font-family: 'Open Sans', verdana, arial, sans-serif; font-size: 24px; fill: rgb(68, 68, 68); fill-opacity: 1; white-space: pre;" transform="translate(1077.6028012650834,707.1369531888489)scale(0.3042195370991512)rotate(11.210153482880742)"> intelligence</text></g></g><g class="slice"><path class="surface" d="M850.5837091594909,657.2525629344235L1101.1674183189818,704.505125868847A510,510 0,0,0 1108.37923570112,650.6269948180399L854.18961785056,630.31349740902A255,255 0,0,1 850.5837091594909,657.2525629344235Z" style="pointer-events: all; stroke-width: 1; fill: rgb(255, 151, 255); fill-opacity: 1; stroke: rgb(255, 255, 255); stroke-opacity: 1; opacity: 0.7;"/><g class="slicetext"><text data-notex="1" class="slicetext" text-anchor="middle" x="0" y="0" style="font-family: 'Open Sans', verdana, arial, sans-serif; font-size: 24px; fill: rgb(68, 68, 68); fill-opacity: 1; white-space: pre;" transform="translate(1013.4695737588569,673.4160136611786)rotate(7.623966942148797)"> intelligence</text></g></g><g class="slice"><path class="surface" d="M854.18961785056,630.31349740902L1108.37923570112,650.6269948180399A510,510 0,0,0 1109.4072444018982,634.5816873071137L854.7036222009491,622.2908436535569A255,255 0,0,1 854.18961785056,630.31349740902Z" style="pointer-events: all; stroke-width: 1; fill: rgb(255, 151, 255); fill-opacity: 1; stroke: rgb(255, 255, 255); stroke-opacity: 1; opacity: 0.7;"/><g class="slicetext"><text data-notex="1" class="slicetext" text-anchor="middle" x="0" y="0" style="font-family: 'Open Sans', verdana, arial, sans-serif; font-size: 24px; fill: rgb(68, 68, 68); fill-opacity: 1; white-space: pre;" transform="translate(1080.4267395573322,644.8251209270952)scale(0.5045409581301649)rotate(3.6658795749705178)"> machine</text></g></g><g class="slice"><path class="surface" d="M854.7036222009491,622.2908436535569L1109.4072444018982,634.5816873071137A510,510 0,0,0 1109.8156161208374,623.712678780273L854.9078080604187,616.8563393901364A255,255 0,0,1 854.7036222009491,622.2908436535569Z" style="pointer-events: all; stroke-width: 1; fill: rgb(255, 151, 255); fill-opacity: 1; stroke: rgb(255, 255, 255); stroke-opacity: 1; opacity: 0.7;"/><g class="slicetext"><text data-notex="1" class="slicetext" text-anchor="middle" x="0" y="0" style="font-family: 'Open Sans', verdana, arial, sans-serif; font-size: 24px; fill: rgb(68, 68, 68); fill-opacity: 1; white-space: pre;" transform="translate(1098.0682310183624,631.6487989826062)scale(0.3666560978390536)rotate(2.151711924439212)"> data</text></g></g><g class="slice"><path class="surface" d="M854.9078080604187,616.8563393901364L1109.8156161208374,623.712678780273A510,510 0,0,0 1109.9629460451395,616.1476549156782L854.9814730225697,613.0738274578391A255,255 0,0,1 854.9078080604187,616.8563393901364Z" style="pointer-events: all; stroke-width: 1; fill: rgb(255, 151, 255); fill-opacity: 1; stroke: rgb(255, 255, 255); stroke-opacity: 1; opacity: 0.7;"/><g class="slicetext"><text data-notex="1" class="slicetext" text-anchor="middle" x="0" y="0" style="font-family: 'Open Sans', verdana, arial, sans-serif; font-size: 24px; fill: rgb(68, 68, 68); fill-opacity: 1; white-space: pre;" transform="translate(1101.8116183519035,621.8424367294197)scale(0.2586488944628546)rotate(1.1157024793388928)"> year</text></g></g><g class="slice"><path class="surface" d="M854.9814730225697,613.0738274578391L1109.9629460451395,616.1476549156782A510,510 0,0,0 1110,610.0000000000001L855,610.0000000000001A255,255 0,0,1 854.9814730225697,613.0738274578391Z" style="pointer-events: all; stroke-width: 1; fill: rgb(255, 151, 255); fill-opacity: 1; stroke: rgb(255, 255, 255); stroke-opacity: 1; opacity: 0.7;"/><g class="slicetext"><text data-notex="1" class="slicetext" text-anchor="middle" x="0" y="0" style="font-family: 'Open Sans', verdana, arial, sans-serif; font-size: 24px; fill: rgb(68, 68, 68); fill-opacity: 1; white-space: pre;" transform="translate(1098.774473103461,614.6659234240396)scale(0.2074517657019094)rotate(0.3453364817001443)">autopilot</text></g></g></g></g><g class="glimages"/><defs id="topdefs-4936b2"><g class="clips"/></defs><g class="layer-above"><g class="imagelayer"/><g class="shapelayer"/></g><g class="infolayer"><g class="g-gtitle"><text class="gtitle" x="60" y="50" text-anchor="start" dy="0em" style="font-family: 'Open Sans', verdana, arial, sans-serif; font-size: 34px; fill: rgb(42, 63, 95); opacity: 1; font-weight: normal; white-space: pre;">Topics &amp; Subtopics by Occurence</text></g></g></svg>