<svg class="main-svg" xmlns="http://www.w3.org/2000/svg" xmlns:xlink="http://www.w3.org/1999/xlink" width="3600" height="3600" style="" viewBox="0 0 1200 1200"><rect x="0" y="0" width="1200" height="1200" style="fill: rgb(255, 255, 255); fill-opacity: 1;"/><defs id="defs-92b70a"><g class="clips"/><g class="gradients"/><g class="patterns"/></defs><g class="bglayer"/><g class="layer-below"><g class="imagelayer"/><g class="shapelayer"/></g><g class="cartesianlayer"/><g class="polarlayer"/><g class="smithlayer"/><g class="ternarylayer"/><g class="geolayer"/><g class="funnelarealayer"/><g class="pielayer"/><g class="iciclelayer"/><g class="treemaplayer"/><g class="sunburstlayer"><g class="trace sunburst" stroke-linejoin="round" style="opacity: 1;"><g class="slice"><path class="surface" d="M600,610L1110,610A510,510 0,0,0 95.49754804421264,535.3188379134439L600,610A0,0 0,0,1 600,610Z" style="pointer-events: all; stroke-width: 1; fill: rgb(99, 110, 250); fill-opacity: 1; stroke: rgb(255, 255, 255); stroke-opacity: 1; opacity: 0.7;"/><g class="slicetext"><text data-notex="1" class="slicetext" text-anchor="middle" x="0" y="0" style="font-family: 'Open Sans', verdana, arial, sans-serif; font-size: 24px; fill: rgb(255, 255, 255); fill-opacity: 1; white-space: pre;" transform="translate(618.746102294495,347.7429633345448)"><tspan class="line" dy="0em" x="0" y="0">machine human interface</tspan><tspan class="line" dy="1.3em" x="0" y="0">48%</tspan></text></g></g><g class="slice"><path class="surface" d="M600,610L95.49754804421264,535.3188379134439A510,510 0,0,0 240.52553864998714,971.77079986798L600,610A0,0 0,0,1 600,610Z" style="pointer-events: all; stroke-width: 1; fill: rgb(239, 85, 59); fill-opacity: 1; stroke: rgb(255, 255, 255); stroke-opacity: 1; opacity: 0.7;"/><g class="slicetext"><text data-notex="1" class="slicetext" text-anchor="middle" x="0" y="0" style="font-family: 'Open Sans', verdana, arial, sans-serif; font-size: 24px; fill: rgb(68, 68, 68); fill-opacity: 1; white-space: pre;" transform="translate(321.30781899311563,694.5959788784938)rotate(-18.381056560066895)"><tspan class="line" dy="0em" x="0" y="0">natural language technology</tspan><tspan class="line" dy="1.3em" x="0" y="0">15%</tspan></text></g></g><g class="slice"><path class="surface" d="M600,610L240.52553864998714,971.77079986798A510,510 0,0,0 616.1318057418954,1119.744803645418L600,610A0,0 0,0,1 600,610Z" style="pointer-events: all; stroke-width: 1; fill: rgb(0, 204, 150); fill-opacity: 1; stroke: rgb(255, 255, 255); stroke-opacity: 1; opacity: 0.7;"/><g class="slicetext"><text data-notex="1" class="slicetext" text-anchor="middle" x="0" y="0" style="font-family: 'Open Sans', verdana, arial, sans-serif; font-size: 24px; fill: rgb(68, 68, 68); fill-opacity: 1; white-space: pre;" transform="translate(466.0712089436771,942.3533753988127)"><tspan class="line" dy="0em" x="0" y="0">gaming</tspan><tspan class="line" dy="1.3em" x="0" y="0">13%</tspan></text></g></g><g class="slice"><path class="surface" d="M600,610L616.1318057418954,1119.744803645418A510,510 0,0,0 828.8995245750376,1065.7466485332852L600,610A0,0 0,0,1 600,610Z" style="pointer-events: all; stroke-width: 1; fill: rgb(171, 99, 250); fill-opacity: 1; stroke: rgb(255, 255, 255); stroke-opacity: 1; opacity: 0.7;"/><g class="slicetext"><text data-notex="1" class="slicetext" text-anchor="middle" x="0" y="0" style="font-family: 'Open Sans', verdana, arial, sans-serif; font-size: 24px; fill: rgb(68, 68, 68); fill-opacity: 1; white-space: pre;" transform="translate(692.3588715694342,943.017776820387)rotate(75.75960362911007)"><tspan class="line" dy="0em" x="0" y="0">research computing</tspan><tspan class="line" dy="1.3em" x="0" y="0">7%</tspan></text></g></g><g class="slice"><path class="surface" d="M600,610L828.8995245750376,1065.7466485332852A510,510 0,0,0 954.5418310213909,976.6061784203855L600,610A0,0 0,0,1 600,610Z" style="pointer-events: all; stroke-width: 1; fill: rgb(255, 161, 90); fill-opacity: 1; stroke: rgb(255, 255, 255); stroke-opacity: 1; opacity: 0.7;"/><g class="slicetext"><text data-notex="1" class="slicetext" text-anchor="middle" x="0" y="0" style="font-family: 'Open Sans', verdana, arial, sans-serif; font-size: 24px; fill: rgb(68, 68, 68); fill-opacity: 1; white-space: pre;" transform="translate(831.7677488324678,923.536587058679)rotate(54.64513223087317)"><tspan class="line" dy="0em" x="0" y="0">search engine</tspan><tspan class="line" dy="1.3em" x="0" y="0">5%</tspan></text></g></g><g class="slice"><path class="surface" d="M600,610L954.5418310213909,976.6061784203855A510,510 0,0,0 1040.2312221933475,867.4810109622676L600,610A0,0 0,0,1 600,610Z" style="pointer-events: all; stroke-width: 1; fill: rgb(25, 211, 243); fill-opacity: 1; stroke: rgb(255, 255, 255); stroke-opacity: 1; opacity: 0.7;"/><g class="slicetext"><text data-notex="1" class="slicetext" text-anchor="middle" x="0" y="0" style="font-family: 'Open Sans', verdana, arial, sans-serif; font-size: 24px; fill: rgb(68, 68, 68); fill-opacity: 1; white-space: pre;" transform="translate(953.0855673827731,879.6551694289278)"><tspan class="line" dy="0em" x="0" y="0">finance</tspan><tspan class="line" dy="1.3em" x="0" y="0">4%</tspan></text></g></g><g class="slice"><path class="surface" d="M600,610L1040.2312221933475,867.4810109622676A510,510 0,0,0 1079.9019027349427,782.6098599483284L600,610A0,0 0,0,1 600,610Z" style="pointer-events: all; stroke-width: 1; fill: rgb(255, 102, 146); fill-opacity: 1; stroke: rgb(255, 255, 255); stroke-opacity: 1; opacity: 0.7;"/><g class="slicetext"><text data-notex="1" class="slicetext" text-anchor="middle" x="0" y="0" style="font-family: 'Open Sans', verdana, arial, sans-serif; font-size: 24px; fill: rgb(68, 68, 68); fill-opacity: 1; white-space: pre;" transform="translate(979.2398551930016,778.9689608469705)scale(0.9887113081064935)rotate(25.052441927803898)"><tspan class="line" dy="0em" x="0" y="0">transhumanism</tspan><tspan class="line" dy="1.3em" x="0" y="0">3%</tspan></text></g></g><g class="slice"><path class="surface" d="M600,610L1079.9019027349427,782.6098599483284A510,510 0,0,0 1103.245532508997,692.7280726823487L600,610A0,0 0,0,1 600,610Z" style="pointer-events: all; stroke-width: 1; fill: rgb(182, 232, 128); fill-opacity: 1; stroke: rgb(255, 255, 255); stroke-opacity: 1; opacity: 0.7;"/><g class="slicetext"><text data-notex="1" class="slicetext" text-anchor="middle" x="0" y="0" style="font-family: 'Open Sans', verdana, arial, sans-serif; font-size: 24px; fill: rgb(68, 68, 68); fill-opacity: 1; white-space: pre;" transform="translate(1002.5600070785995,706.9085219437715)scale(0.9730725073426969)rotate(14.558908693134242)"><tspan class="line" dy="0em" x="0" y="0">computer vision</tspan><tspan class="line" dy="1.3em" x="0" y="0">3%</tspan></text></g></g><g class="slice"><path class="surface" d="M600,610L1103.245532508997,692.7280726823487A510,510 0,0,0 1110,609.9999999999997L600,610A0,0 0,0,1 600,610Z" style="pointer-events: all; stroke-width: 1; fill: rgb(255, 151, 255); fill-opacity: 1; stroke: rgb(255, 255, 255); stroke-opacity: 1; opacity: 0.7;"/><g class="slicetext"><text data-notex="1" class="slicetext" text-anchor="middle" x="0" y="0" style="font-family: 'Open Sans', verdana, arial, sans-serif; font-size: 24px; fill: rgb(68, 68, 68); fill-opacity: 1; white-space: pre;" transform="translate(1033.533726086702,637.921311841368)scale(0.9801221343259119)rotate(4.667653304163139)"><tspan class="line" dy="0em" x="0" y="0">social media</tspan><tspan class="line" dy="1.3em" x="0" y="0">3%</tspan></text></g></g></g></g><g class="glimages"/><defs id="topdefs-92b70a"><g class="clips"/></defs><g class="layer-above"><g class="imagelayer"/><g class="shapelayer"/></g><g class="infolayer"><g class="g-gtitle"><text class="gtitle" x="60" y="50" text-anchor="start" dy="0em" style="font-family: 'Open Sans', verdana, arial, sans-serif; font-size: 34px; fill: rgb(42, 63, 95); opacity: 1; font-weight: normal; white-space: pre;">Topics by Occurence</text></g></g></svg>