<svg class="main-svg" xmlns="http://www.w3.org/2000/svg" xmlns:xlink="http://www.w3.org/1999/xlink" width="3600" height="3600" style="" viewBox="0 0 1200 1200"><rect x="0" y="0" width="1200" height="1200" style="fill: rgb(255, 255, 255); fill-opacity: 1;"/><defs id="defs-919605"><g class="clips"/><g class="gradients"/><g class="patterns"/></defs><g class="bglayer"/><g class="layer-below"><g class="imagelayer"/><g class="shapelayer"/></g><g class="cartesianlayer"/><g class="polarlayer"/><g class="smithlayer"/><g class="ternarylayer"/><g class="geolayer"/><g class="funnelarealayer"/><g class="pielayer"/><g class="iciclelayer"/><g class="treemaplayer"/><g class="sunburstlayer"><g class="trace sunburst" stroke-linejoin="round" style="opacity: 1;"><g class="slice"><path class="surface" d="M600,610L1110,610A510,510 0,0,0 712.1020854152762,112.47299325006878L600,610A0,0 0,0,1 600,610Z" style="pointer-events: all; stroke-width: 1; fill: rgb(99, 110, 250); fill-opacity: 1; stroke: rgb(255, 255, 255); stroke-opacity: 1; opacity: 0.7;"/><g class="slicetext"><text data-notex="1" class="slicetext" text-anchor="middle" x="0" y="0" style="font-family: 'Open Sans', verdana, arial, sans-serif; font-size: 24px; fill: rgb(255, 255, 255); fill-opacity: 1; white-space: pre;" transform="translate(845.166265292076,406.32637636006325)"><tspan class="line" dy="0em" x="0" y="0"> data</tspan><tspan class="line" dy="1.3em" x="0" y="0">21%</tspan></text></g></g><g class="slice"><path class="surface" d="M600,610L712.1020854152762,112.47299325006878A510,510 0,0,0 140.30088785792094,389.14546349285865L600,610A0,0 0,0,1 600,610Z" style="pointer-events: all; stroke-width: 1; fill: rgb(239, 85, 59); fill-opacity: 1; stroke: rgb(255, 255, 255); stroke-opacity: 1; opacity: 0.7;"/><g class="slicetext"><text data-notex="1" class="slicetext" text-anchor="middle" x="0" y="0" style="font-family: 'Open Sans', verdana, arial, sans-serif; font-size: 24px; fill: rgb(68, 68, 68); fill-opacity: 1; white-space: pre;" transform="translate(463.1147847793917,319.4966731056082)"><tspan class="line" dy="0em" x="0" y="0">autopilot</tspan><tspan class="line" dy="1.3em" x="0" y="0">21%</tspan></text></g></g><g class="slice"><path class="surface" d="M600,610L140.30088785792094,389.14546349285865A510,510 0,0,0 216.43180601602472,946.1181943362653L600,610A0,0 0,0,1 600,610Z" style="pointer-events: all; stroke-width: 1; fill: rgb(0, 204, 150); fill-opacity: 1; stroke: rgb(255, 255, 255); stroke-opacity: 1; opacity: 0.7;"/><g class="slicetext"><text data-notex="1" class="slicetext" text-anchor="middle" x="0" y="0" style="font-family: 'Open Sans', verdana, arial, sans-serif; font-size: 24px; fill: rgb(68, 68, 68); fill-opacity: 1; white-space: pre;" transform="translate(274.23634824500624,646.9260858699472)"><tspan class="line" dy="0em" x="0" y="0"> intelligence</tspan><tspan class="line" dy="1.3em" x="0" y="0">19%</tspan></text></g></g><g class="slice"><path class="surface" d="M600,610L216.43180601602472,946.1181943362653A510,510 0,0,0 546.659129345669,1117.202870179022L600,610A0,0 0,0,1 600,610Z" style="pointer-events: all; stroke-width: 1; fill: rgb(171, 99, 250); fill-opacity: 1; stroke: rgb(255, 255, 255); stroke-opacity: 1; opacity: 0.7;"/><g class="slicetext"><text data-notex="1" class="slicetext" text-anchor="middle" x="0" y="0" style="font-family: 'Open Sans', verdana, arial, sans-serif; font-size: 24px; fill: rgb(68, 68, 68); fill-opacity: 1; white-space: pre;" transform="translate(428.0799718652106,934.2381562711203)"><tspan class="line" dy="0em" x="0" y="0"> recognition</tspan><tspan class="line" dy="1.3em" x="0" y="0">12%</tspan></text></g></g><g class="slice"><path class="surface" d="M600,610L546.659129345669,1117.202870179022A510,510 0,0,0 795.3869845259532,1081.0880239168205L600,610A0,0 0,0,1 600,610Z" style="pointer-events: all; stroke-width: 1; fill: rgb(255, 161, 90); fill-opacity: 1; stroke: rgb(255, 255, 255); stroke-opacity: 1; opacity: 0.7;"/><g class="slicetext"><text data-notex="1" class="slicetext" text-anchor="middle" x="0" y="0" style="font-family: 'Open Sans', verdana, arial, sans-serif; font-size: 24px; fill: rgb(68, 68, 68); fill-opacity: 1; white-space: pre;" transform="translate(658.7247554498836,1007.3280622914345)"><tspan class="line" dy="0em" x="0" y="0"> computer</tspan><tspan class="line" dy="1.3em" x="0" y="0">8%</tspan></text></g></g><g class="slice"><path class="surface" d="M600,610L795.3869845259532,1081.0880239168205A510,510 0,0,0 968.8867263381603,962.1684016653328L600,610A0,0 0,0,1 600,610Z" style="pointer-events: all; stroke-width: 1; fill: rgb(25, 211, 243); fill-opacity: 1; stroke: rgb(255, 255, 255); stroke-opacity: 1; opacity: 0.7;"/><g class="slicetext"><text data-notex="1" class="slicetext" text-anchor="middle" x="0" y="0" style="font-family: 'Open Sans', verdana, arial, sans-serif; font-size: 24px; fill: rgb(68, 68, 68); fill-opacity: 1; white-space: pre;" transform="translate(810.7540252565784,904.037564087557)rotate(55.57260920897278)"><tspan class="line" dy="0em" x="0" y="0"> supercomputer</tspan><tspan class="line" dy="1.3em" x="0" y="0">7%</tspan></text></g></g><g class="slice"><path class="surface" d="M600,610L968.8867263381603,962.1684016653328A510,510 0,0,0 1015.799169331464,905.3151719489952L600,610A0,0 0,0,1 600,610Z" style="pointer-events: all; stroke-width: 1; fill: rgb(255, 102, 146); fill-opacity: 1; stroke: rgb(255, 255, 255); stroke-opacity: 1; opacity: 0.7;"/><g class="slicetext"><text data-notex="1" class="slicetext" text-anchor="middle" x="0" y="0" style="font-family: 'Open Sans', verdana, arial, sans-serif; font-size: 24px; fill: rgb(68, 68, 68); fill-opacity: 1; white-space: pre;" transform="translate(952.9622935710397,891.8530755598154)scale(0.9531678507958117)rotate(39.527744982290415)"><tspan class="line" dy="0em" x="0" y="0"> language</tspan><tspan class="line" dy="1.3em" x="0" y="0">2%</tspan></text></g></g><g class="slice"><path class="surface" d="M600,610L1015.799169331464,905.3151719489952A510,510 0,0,0 1050.3082059702465,849.42121801515L600,610A0,0 0,0,1 600,610Z" style="pointer-events: all; stroke-width: 1; fill: rgb(182, 232, 128); fill-opacity: 1; stroke: rgb(255, 255, 255); stroke-opacity: 1; opacity: 0.7;"/><g class="slicetext"><text data-notex="1" class="slicetext" text-anchor="middle" x="0" y="0" style="font-family: 'Open Sans', verdana, arial, sans-serif; font-size: 24px; fill: rgb(68, 68, 68); fill-opacity: 1; white-space: pre;" transform="translate(987.0436432274352,841.4083308128482)scale(0.8454746390617338)rotate(31.691263282172372)"><tspan class="line" dy="0em" x="0" y="0"> translation</tspan><tspan class="line" dy="1.3em" x="0" y="0">2%</tspan></text></g></g><g class="slice"><path class="surface" d="M600,610L1050.3082059702465,849.42121801515A510,510 0,0,0 1074.803180025698,796.177174319207L600,610A0,0 0,0,1 600,610Z" style="pointer-events: all; stroke-width: 1; fill: rgb(255, 151, 255); fill-opacity: 1; stroke: rgb(255, 255, 255); stroke-opacity: 1; opacity: 0.7;"/><g class="slicetext"><text data-notex="1" class="slicetext" text-anchor="middle" x="0" y="0" style="font-family: 'Open Sans', verdana, arial, sans-serif; font-size: 24px; fill: rgb(68, 68, 68); fill-opacity: 1; white-space: pre;" transform="translate(1040.6427337090706,805.4088107256567)scale(0.873545052855413)rotate(24.704840613931538)"><tspan class="line" dy="0em" x="0" y="0"> time</tspan><tspan class="line" dy="1.3em" x="0" y="0">2%</tspan></text></g></g><g class="slice"><path class="surface" d="M600,610L1074.803180025698,796.177174319207A510,510 0,0,0 1092.9066125127847,740.9315521223643L600,610A0,0 0,0,1 600,610Z" style="pointer-events: all; stroke-width: 1; fill: rgb(254, 203, 82); fill-opacity: 1; stroke: rgb(255, 255, 255); stroke-opacity: 1; opacity: 0.7;"/><g class="slicetext"><text data-notex="1" class="slicetext" text-anchor="middle" x="0" y="0" style="font-family: 'Open Sans', verdana, arial, sans-serif; font-size: 24px; fill: rgb(68, 68, 68); fill-opacity: 1; white-space: pre;" transform="translate(1043.3904512817564,748.8950653967794)scale(0.8000096677129369)rotate(18.143447461629307)"><tspan class="line" dy="0em" x="0" y="0"> machine</tspan><tspan class="line" dy="1.3em" x="0" y="0">2%</tspan></text></g></g><g class="slice"><path class="surface" d="M600,610L1092.9066125127847,740.9315521223643A510,510 0,0,0 1101.9386434287808,700.3194233422429L600,610A0,0 0,0,1 600,610Z" style="pointer-events: all; stroke-width: 1; fill: rgb(198, 202, 253); fill-opacity: 1; stroke: rgb(255, 255, 255); stroke-opacity: 1; opacity: 0.7;"/><g class="slicetext"><text data-notex="1" class="slicetext" text-anchor="middle" x="0" y="0" style="font-family: 'Open Sans', verdana, arial, sans-serif; font-size: 24px; fill: rgb(68, 68, 68); fill-opacity: 1; white-space: pre;" transform="translate(1078.1584395807718,711.3756117088241)scale(0.63765131898)rotate(12.53837072018888)"><tspan class="line" dy="0em" x="0" y="0"> level</tspan><tspan class="line" dy="1.3em" x="0" y="0">1%</tspan></text></g></g><g class="slice"><path class="surface" d="M600,610L1101.9386434287808,700.3194233422429A510,510 0,0,0 1106.4119113910688,670.3901978904213L600,610A0,0 0,0,1 600,610Z" style="pointer-events: all; stroke-width: 1; fill: rgb(247, 167, 153); fill-opacity: 1; stroke: rgb(255, 255, 255); stroke-opacity: 1; opacity: 0.7;"/><g class="slicetext"><text data-notex="1" class="slicetext" text-anchor="middle" x="0" y="0" style="font-family: 'Open Sans', verdana, arial, sans-serif; font-size: 24px; fill: rgb(68, 68, 68); fill-opacity: 1; white-space: pre;" transform="translate(1083.8703398843052,678.758539390648)scale(0.46337040220789516)rotate(8.500590318772083)"><tspan class="line" dy="0em" x="0" y="0"> enemy</tspan><tspan class="line" dy="1.3em" x="0" y="0">1%</tspan></text></g></g><g class="slice"><path class="surface" d="M600,610L1106.4119113910688,670.3901978904213A510,510 0,0,0 1108.9260187051946,643.0803186937488L600,610A0,0 0,0,1 600,610Z" style="pointer-events: all; stroke-width: 1; fill: rgb(51, 255, 201); fill-opacity: 1; stroke: rgb(255, 255, 255); stroke-opacity: 1; opacity: 0.7;"/><g class="slicetext"><text data-notex="1" class="slicetext" text-anchor="middle" x="0" y="0" style="font-family: 'Open Sans', verdana, arial, sans-serif; font-size: 24px; fill: rgb(68, 68, 68); fill-opacity: 1; white-space: pre;" transform="translate(1087.2466162657995,651.6459538315186)scale(0.4204056798783516)rotate(5.2597402597402265)"><tspan class="line" dy="0em" x="0" y="0"> science</tspan><tspan class="line" dy="1.3em" x="0" y="0">1%</tspan></text></g></g><g class="slice"><path class="surface" d="M600,610L1108.9260187051946,643.0803186937488A510,510 0,0,0 1109.6665467112502,628.4393916230721L600,610A0,0 0,0,1 600,610Z" style="pointer-events: all; stroke-width: 1; fill: rgb(224, 198, 253); fill-opacity: 1; stroke: rgb(255, 255, 255); stroke-opacity: 1; opacity: 0.7;"/><g class="slicetext"><text data-notex="1" class="slicetext" text-anchor="middle" x="0" y="0" style="font-family: 'Open Sans', verdana, arial, sans-serif; font-size: 24px; fill: rgb(68, 68, 68); fill-opacity: 1; white-space: pre;" transform="translate(1098.5543209568116,633.4332729106083)scale(0.23429190514923587)rotate(2.8955135773317124)"><tspan class="line" dy="0em" x="0" y="0"> post</tspan><tspan class="line" dy="1.3em" x="0" y="0">0.457%</tspan></text></g></g><g class="slice"><path class="surface" d="M600,610L1109.6665467112502,628.4393916230721A510,510 0,0,0 1109.943871282178,617.5662501773019L600,610A0,0 0,0,1 600,610Z" style="pointer-events: all; stroke-width: 1; fill: rgb(255, 219, 192); fill-opacity: 1; stroke: rgb(255, 255, 255); stroke-opacity: 1; opacity: 0.7;"/><g class="slicetext"><text data-notex="1" class="slicetext" text-anchor="middle" x="0" y="0" style="font-family: 'Open Sans', verdana, arial, sans-serif; font-size: 24px; fill: rgb(68, 68, 68); fill-opacity: 1; white-space: pre;" transform="translate(1100.5236483788215,621.4359346212125)scale(0.17492762598760286)rotate(1.4610389610389234)"><tspan class="line" dy="0em" x="0" y="0"> network</tspan><tspan class="line" dy="1.3em" x="0" y="0">0.339%</tspan></text></g></g><g class="slice"><path class="surface" d="M600,610L1109.943871282178,617.5662501773019A510,510 0,0,0 1110,610.0000000000001L600,610A0,0 0,0,1 600,610Z" style="pointer-events: all; stroke-width: 1; fill: rgb(122, 230, 248); fill-opacity: 1; stroke: rgb(255, 255, 255); stroke-opacity: 1; opacity: 0.7;"/><g class="slicetext"><text data-notex="1" class="slicetext" text-anchor="middle" x="0" y="0" style="font-family: 'Open Sans', verdana, arial, sans-serif; font-size: 24px; fill: rgb(68, 68, 68); fill-opacity: 1; white-space: pre;" transform="translate(1104.2617515067298,612.8021786637795)scale(0.12346944961520882)rotate(0.42502951593860416)"><tspan class="line" dy="0em" x="0" y="0"> year</tspan><tspan class="line" dy="1.3em" x="0" y="0">0.236%</tspan></text></g></g></g></g><g class="glimages"/><defs id="topdefs-919605"><g class="clips"/></defs><g class="layer-above"><g class="imagelayer"/><g class="shapelayer"/></g><g class="infolayer"><g class="g-gtitle"><text class="gtitle" x="60" y="50" text-anchor="start" dy="0em" style="font-family: 'Open Sans', verdana, arial, sans-serif; font-size: 34px; fill: rgb(42, 63, 95); opacity: 1; font-weight: normal; white-space: pre;">Subtopics by Occurence</text></g></g></svg>